<svg width="97" height="23" viewBox="0 0 97 23" fill="none" xmlns="http://www.w3.org/2000/svg">
<path fill-rule="evenodd" clip-rule="evenodd" d="M31.5199 1.83872C34.6927 1.82482 37.573 1.73026 37.9206 1.62837C38.2683 1.52647 38.6796 1.48729 38.8346 1.54114C39.2356 1.68045 39.6219 2.62529 39.8214 3.95519C40.1693 6.27519 39.2384 6.9055 38.0703 5.14072C37.2026 3.82953 36.6377 3.63384 33.7208 3.63384C31.5045 3.63384 31.2767 3.68112 30.6951 4.26263C30.0894 4.86842 30.0689 4.99712 30.1376 7.73909L30.2092 10.5867L31.7699 10.6616C32.7396 10.7079 33.671 10.5941 34.2295 10.3607C34.9933 10.0416 35.1531 9.83128 35.2919 8.96381C35.3817 8.40202 35.6047 7.74111 35.7875 7.49485C36.1053 7.06655 36.1399 7.06681 36.5778 7.49865C36.9763 7.89155 37.0357 8.40733 37.0357 11.4717C37.0357 14.536 36.9763 15.0518 36.5778 15.4447C36.1381 15.8783 36.1055 15.8768 35.7561 15.4055C35.5559 15.1355 35.3923 14.6584 35.3923 14.3451C35.3923 14.0316 35.1233 13.4625 34.7943 13.0802C34.2783 12.4802 33.966 12.3702 32.5171 12.2779C30.1111 12.1247 30.0828 12.167 30.0828 15.8993C30.0828 20.1939 30.0833 20.1944 33.96 20.1944C37.3995 20.1944 37.9247 19.9466 38.9319 17.8474C39.3613 16.9526 39.7162 16.5298 40.0388 16.5293C40.473 16.5283 40.5041 16.6987 40.3996 18.5009C40.2621 20.876 39.586 22.5205 38.8055 22.3771C38.5274 22.326 35.2848 22.2123 31.5998 22.1243C24.9528 21.9655 24.8992 21.9599 24.8208 21.41C24.7634 21.007 24.95 20.7481 25.5047 20.4611C26.0612 20.1734 26.3219 19.8103 26.4685 19.1194C26.7118 17.972 26.7186 5.53616 26.4764 4.64517C26.3818 4.29753 25.9598 3.81917 25.5389 3.58251C24.6623 3.08924 24.5516 2.50595 25.2623 2.12569C25.554 1.96969 28.0781 1.85389 31.5199 1.83872ZM83.9362 2.02885C83.9362 1.82229 84.0624 1.61117 84.2166 1.55985C84.3708 1.50852 84.894 1.51257 85.3786 1.5692C86.4244 1.69132 86.4479 1.73734 89.8609 10.3407C92.955 18.1401 93.0347 18.33 93.5881 19.2407C93.8607 19.6895 94.3891 20.203 94.762 20.3817C95.809 20.8836 95.6947 21.8656 94.5552 22.1627C93.2665 22.4987 88.6457 22.2841 88.1406 21.8649C87.5138 21.3445 87.6412 20.9532 88.6073 20.4328C89.7286 19.8291 89.8073 19.5894 89.3686 18.1126C88.7646 16.0783 88.6227 15.9812 86.035 15.8338C81.8455 15.5949 80.6861 16.0315 80.1417 18.0529C79.9089 18.9173 79.9296 19.2043 80.2605 19.7097C80.4808 20.0457 80.8115 20.3208 80.9953 20.3208C81.1791 20.3208 81.5386 20.5519 81.7942 20.8343C82.2337 21.3198 82.2352 21.3716 81.8246 21.7824C81.4519 22.1554 80.7718 22.2244 77.0377 22.2681C74.4633 22.2982 72.4063 22.2102 72.0025 22.053C71.2478 21.7589 68.8563 19.1492 65.4913 14.9481C64.7396 14.0094 64.0145 13.2415 63.88 13.2415C63.7265 13.2415 63.7005 14.4384 63.8102 16.4651L63.9847 19.6887L64.9217 20.4925C65.8233 21.2659 65.8417 21.3134 65.4066 21.7567C65.0218 22.1488 64.5262 22.2171 62.0654 22.2171C59.775 22.2171 59.0939 22.1346 58.7788 21.8196C58.2805 21.3208 58.4939 20.7274 59.304 20.3582C59.6468 20.202 60.047 19.76 60.1932 19.3757C60.5004 18.5697 60.5787 7.20713 60.2905 5.30962C60.1401 4.32003 59.9613 3.99665 59.3821 3.6662C58.4618 3.14107 58.2529 2.59697 58.814 2.18662C59.3462 1.79751 64.108 1.73961 65.0837 2.11052C66.0657 2.48395 65.9924 2.70114 64.4999 3.83863C63.9445 4.26187 63.8904 4.51496 63.7695 7.25163C63.6545 9.85758 63.6873 10.2075 64.0474 10.2075C64.419 10.2075 69.1488 4.94958 69.4527 4.19841C69.5237 4.02219 69.2848 3.64421 68.9212 3.3585C68.1101 2.72035 68.076 2.2253 68.8295 2.02329C69.573 1.82406 73.6659 1.81951 74.1814 2.01748C74.8982 2.29256 74.6578 3.12564 73.8128 3.29454C73.3901 3.37898 72.4594 3.97365 71.7444 4.61559C70.2107 5.99302 66.4907 10.4335 66.4907 10.8869C66.4907 11.0601 66.9744 11.7624 67.5653 12.4476C68.1562 13.1328 69.6638 14.8796 70.9153 16.3296C73.1433 18.9105 74.9644 20.5737 75.5632 20.5737C76.467 20.5737 78.1453 18.6501 78.6331 17.0552C78.743 16.696 79.5943 14.4108 80.5247 11.9773C82.4149 7.03444 83.9362 2.59798 83.9362 2.02885ZM0.40296 3.18152C-0.158329 2.73223 -0.107004 2.39546 0.564521 2.12013C0.877528 1.99194 2.1561 1.91027 3.40611 1.93859C3.68998 1.94506 3.93705 1.93977 4.1557 1.93508C4.61996 1.92513 4.9561 1.91793 5.24433 2.0319C6.00058 2.33091 6.42702 3.46407 7.97231 7.5703C8.24967 8.30732 8.56308 9.14013 8.92091 10.0811C10.3707 13.8925 11.2733 15.9311 11.6014 16.1339C12.1347 16.4633 13.3839 13.5512 15.8159 6.31008C16.559 4.09703 17.3142 2.19294 17.4937 2.07891C18.0307 1.7381 22.0938 1.82406 22.5896 2.18662C23.1539 2.59925 22.9405 3.14157 22.0035 3.67657C20.9621 4.27098 20.8809 5.01557 21.0733 12.213C21.2728 19.6786 21.31 19.9335 22.2525 20.3239C23.1306 20.6877 23.3283 21.137 22.8803 21.7501C22.5825 22.1574 22.1668 22.2171 19.6203 22.2171C17.1312 22.2171 16.6351 22.1493 16.2498 21.7567C15.8147 21.3134 15.8356 21.2639 16.809 20.4391L17.8204 19.5823V13.3148C17.8204 9.51524 17.7263 7.06428 17.5815 7.09108C17.45 7.1151 17.0088 8.0253 16.601 9.11374C13.1882 18.221 11.6406 21.8378 11.1562 21.8378C10.5534 21.8378 9.08853 19.0331 7.19456 14.2528C6.72631 13.0708 5.93899 11.141 5.44496 9.96427C4.95092 8.78733 4.54664 7.79193 4.54664 7.75198C4.54664 7.71178 4.44526 7.67917 4.32137 7.67917C4.03162 7.67917 3.67159 17.1447 3.90268 18.6855C4.04907 19.6627 4.21973 19.9375 4.94435 20.3651C6.84666 21.4876 5.38832 22.5078 2.20667 22.2803C-0.290055 22.1015 -0.723411 21.1729 1.19003 20.1021C1.69418 19.8197 2.24333 13.7944 2.26027 8.35499L2.27114 4.85907L1.54071 4.18325C1.13921 3.81158 0.627223 3.36078 0.40296 3.18152ZM42.7315 3.58251C41.8729 3.09935 41.7462 2.52845 42.4084 2.12594C42.6726 1.96539 44.0425 1.88398 45.8098 1.92368C49.4761 2.00635 49.8978 2.26171 48.4253 3.50666L47.4264 4.35138L47.2648 7.30826C47.1758 8.93448 47.1751 12.2446 47.2628 14.6642C47.4117 18.7697 47.4603 19.1009 47.9879 19.6288C48.4769 20.1178 48.8207 20.1944 50.5294 20.1944C52.9892 20.1944 53.6842 19.8468 54.6516 18.1328C55.6002 16.4517 55.9557 16.1468 56.3762 16.6532C56.5969 16.9192 56.649 17.5227 56.545 18.616C56.2654 21.5632 55.6235 22.8795 54.6741 22.4525C54.4288 22.3422 51.4977 22.1872 48.1603 22.1081C42.1583 21.9657 42.0916 21.9582 42.0135 21.41C41.9561 21.006 42.1434 20.7476 42.7052 20.4573C43.1467 20.2288 43.558 19.7638 43.669 19.3681C43.9145 18.4908 43.9239 5.4909 43.6796 4.64517C43.5793 4.29753 43.1525 3.81917 42.7315 3.58251ZM87.5305 13.8612C87.6931 13.6986 86.7798 10.9976 85.7265 8.5254C84.9559 6.71638 84.3516 6.22866 84.114 7.22432C84.0376 7.5439 83.4675 9.114 82.8468 10.7132C82.2261 12.3123 81.7689 13.7062 81.8309 13.8104C81.9588 14.0263 87.3176 14.0738 87.5305 13.8612Z" fill="black"/>
<path fill-rule="evenodd" clip-rule="evenodd" d="M33.0369 0.321756C36.2097 0.30785 39.09 0.21329 39.4376 0.111399C39.7853 0.00950685 40.1966 -0.0296826 40.3516 0.0241709C40.7526 0.163482 41.139 1.10832 41.3384 2.43822C41.6863 4.75822 40.7554 5.38853 39.5873 3.62376C38.7196 2.31256 38.1548 2.11687 35.2378 2.11687C33.0215 2.11687 32.7937 2.16415 32.2122 2.74567C31.6064 3.35145 31.5859 3.48015 31.6547 6.22212L31.7262 9.06978L33.287 9.14462C34.2566 9.19089 35.188 9.07711 35.7465 8.84375C36.5103 8.52467 36.6701 8.31431 36.8089 7.44684C36.8987 6.88505 37.1217 6.22414 37.3045 5.97789C37.6223 5.54959 37.6569 5.54984 38.0948 5.98168C38.4933 6.37458 38.5527 6.89036 38.5527 9.9547C38.5527 13.019 38.4933 13.5348 38.0948 13.9277C37.6552 14.3613 37.6225 14.3598 37.2731 13.8885C37.0729 13.6185 36.9093 13.1414 36.9093 12.8281C36.9093 12.5146 36.6403 11.9455 36.3114 11.5632C35.7953 10.9632 35.4831 10.8533 34.0341 10.761C31.6281 10.6078 31.5998 10.65 31.5998 14.3823C31.5998 18.6769 31.6003 18.6774 35.477 18.6774C38.9166 18.6774 39.4417 18.4297 40.449 16.3304C40.8783 15.4356 41.2333 15.0129 41.5559 15.0124C41.99 15.0114 42.0211 15.1818 41.9167 16.984C41.7791 19.3591 41.103 21.0035 40.3226 20.8601C40.0444 20.8091 36.8019 20.6953 33.1168 20.6073C26.4698 20.4485 26.4162 20.443 26.3378 19.8931C26.2805 19.49 26.467 19.2311 27.0218 18.9442C27.5782 18.6565 27.8389 18.2934 27.9856 17.6024C28.2288 16.455 28.2356 4.01919 27.9934 3.1282C27.8988 2.78056 27.4769 2.3022 27.0559 2.06555C26.1793 1.57227 26.0686 0.988983 26.7793 0.608722C27.0711 0.452724 29.5951 0.336926 33.0369 0.321756ZM85.4533 0.511886C85.4533 0.305321 85.5794 0.0942069 85.7336 0.0428818C85.8879 -0.00844331 86.411 -0.00439926 86.8957 0.0522353C87.9414 0.174354 87.9649 0.22037 91.3779 8.82377C94.4721 16.6232 94.5517 16.813 95.1052 17.7237C95.3777 18.1725 95.9061 18.686 96.2791 18.8648C97.326 19.3667 97.2118 20.3487 96.0722 20.6457C94.7836 20.9818 90.1628 20.7671 89.6576 20.3479C89.0308 19.8276 89.1583 19.4362 90.1243 18.9159C91.2457 18.3121 91.3243 18.0724 90.8856 16.5956C90.2816 14.5613 90.1398 14.4642 87.552 14.3168C83.3626 14.0779 82.2031 14.5145 81.6587 16.5359C81.4259 17.4004 81.4466 17.6873 81.7776 18.1928C81.9978 18.5288 82.3285 18.8038 82.5123 18.8038C82.6961 18.8038 83.0556 19.0349 83.3113 19.3174C83.7507 19.8028 83.7522 19.8546 83.3416 20.2655C82.9689 20.6384 82.2888 20.7074 78.5547 20.7512C75.9804 20.7813 73.9233 20.6933 73.5195 20.536C72.7648 20.242 70.3733 17.6322 67.0083 13.4312C66.2567 12.4924 65.5315 11.7245 65.397 11.7245C65.2436 11.7245 65.2175 12.9214 65.3272 14.9482L65.5017 18.1718L66.4387 18.9755C67.3403 19.7489 67.3588 19.7965 66.9236 20.2397C66.5388 20.6318 66.0433 20.7001 63.5824 20.7001C61.292 20.7001 60.6109 20.6177 60.2959 20.3026C59.7975 19.8038 60.0109 19.2104 60.821 18.8413C61.1638 18.685 61.5641 18.2431 61.7102 17.8588C62.0174 17.0527 62.0958 5.69016 61.8075 3.79265C61.6571 2.80306 61.4784 2.47969 60.8991 2.14923C59.9788 1.6241 59.77 1.08 60.331 0.669654C60.8632 0.280544 65.6251 0.222645 66.6008 0.593551C67.5828 0.966985 67.5094 1.18417 66.017 2.32166C65.4615 2.74491 65.4074 2.99799 65.2865 5.73466C65.1715 8.34061 65.2044 8.69053 65.5644 8.69053C65.9361 8.69053 70.6658 3.43261 70.9697 2.68145C71.0408 2.50522 70.8018 2.12724 70.4383 1.84154C69.6272 1.20339 69.593 0.708337 70.3465 0.506323C71.0901 0.30709 75.1829 0.302541 75.6985 0.500509C76.4152 0.775591 76.1748 1.60868 75.3298 1.77757C74.9071 1.86202 73.9764 2.45668 73.2614 3.09862C71.7277 4.47606 68.0078 8.91656 68.0078 9.36989C68.0078 9.54308 68.4914 10.2455 69.0823 10.9306C69.6732 11.6158 71.1808 13.3626 72.4324 14.8126C74.6603 17.3935 76.4815 19.0567 77.0802 19.0567C77.9841 19.0567 79.6624 17.1331 80.1501 15.5383C80.2601 15.179 81.1114 12.8939 82.0418 10.4604C83.932 5.51748 85.4533 1.08101 85.4533 0.511886ZM1.91999 1.66455C1.3587 1.21527 1.41002 0.878494 2.08155 0.603159C2.39456 0.474972 3.67313 0.393307 4.92314 0.421624C5.20701 0.428092 5.45408 0.422799 5.67273 0.418113C6.13699 0.408165 6.47313 0.400961 6.76136 0.514928C7.51761 0.813947 7.94405 1.9471 9.48934 6.05333C9.7667 6.79036 10.0801 7.62316 10.4379 8.56412C11.8877 12.3756 12.7903 14.4142 13.1185 14.6169C13.6517 14.9464 14.9009 12.0342 17.3329 4.79311C18.076 2.58006 18.8312 0.675974 19.0107 0.561947C19.5478 0.221128 23.6108 0.307091 24.1066 0.669654C24.6709 1.08228 24.4575 1.6246 23.5205 2.1596C22.4791 2.75401 22.398 3.4986 22.5904 10.696C22.7898 18.1617 22.827 18.4165 23.7696 18.8069C24.6477 19.1707 24.8454 19.62 24.3974 20.2331C24.0995 20.6404 23.6839 20.7001 21.1373 20.7001C18.6482 20.7001 18.1521 20.6323 17.7668 20.2397C17.3317 19.7965 17.3527 19.7469 18.3261 18.9222L19.3374 18.0653V11.7978C19.3374 7.99827 19.2434 5.54731 19.0985 5.57411C18.967 5.59813 18.5258 6.50833 18.118 7.59678C14.7053 16.7041 13.1577 20.3208 12.6732 20.3208C12.0705 20.3208 10.6056 17.5162 8.71159 12.7359C8.24334 11.5539 7.45602 9.62399 6.96199 8.44731C6.46795 7.27037 6.06367 6.27496 6.06367 6.23502C6.06367 6.19482 5.96228 6.1622 5.8384 6.1622C5.54865 6.1622 5.18861 15.6278 5.4197 17.1685C5.56609 18.1457 5.73676 18.4206 6.46138 18.8481C8.36369 19.9707 6.90535 20.9909 3.7237 20.7633C1.22697 20.5846 0.793618 19.6559 2.70706 18.5852C3.21121 18.3027 3.76036 12.2775 3.7773 6.83802L3.78817 3.3421L3.05774 2.66628C2.65624 2.29461 2.14425 1.84381 1.91999 1.66455ZM44.2485 2.06555C43.3899 1.58238 43.2633 1.01148 43.9254 0.608975C44.1896 0.448426 45.5595 0.367013 47.3268 0.406707C50.9931 0.489384 51.4148 0.744746 49.9423 1.9897L48.9434 2.83441L48.7818 5.79129C48.6928 7.41751 48.6921 10.7276 48.7798 13.1472C48.9287 17.2527 48.9773 17.5839 49.5049 18.1118C49.9939 18.6008 50.3378 18.6774 52.0464 18.6774C54.5062 18.6774 55.2013 18.3298 56.1686 16.6158C57.1172 14.9347 57.4727 14.6298 57.8932 15.1363C58.1139 15.4022 58.166 16.0057 58.0621 17.099C57.7824 20.0463 57.1405 21.3625 56.1911 20.9355C55.9459 20.8253 53.0148 20.6703 49.6774 20.5911C43.6754 20.4488 43.6086 20.4412 43.5305 19.8931C43.4731 19.489 43.6605 19.2306 44.2222 18.9404C44.6637 18.7118 45.0751 18.2469 45.186 17.8512C45.4315 16.9738 45.4409 3.97393 45.1967 3.1282C45.0963 2.78056 44.6695 2.3022 44.2485 2.06555ZM89.0475 12.3442C89.2101 12.1816 88.2969 9.48064 87.2436 7.00843C86.4729 5.19941 85.8687 4.7117 85.631 5.70735C85.5546 6.02693 84.9845 7.59703 84.3638 9.1962C83.7431 10.7954 83.286 12.1892 83.3479 12.2934C83.4758 12.5093 88.8346 12.5569 89.0475 12.3442Z" fill="#A35642"/>
</svg>
