<svg width="302" height="223" viewBox="0 0 302 223" fill="none" xmlns="http://www.w3.org/2000/svg">
<path d="M237.587 175.914L232.884 186.662L232.855 186.731L232.815 186.795L226.803 196.343L247.571 205.985L247.622 206.009L247.672 206.039L267.921 218.414L274.77 209.402L274.812 209.346L274.861 209.297L282.631 201.572L262.221 187.133L237.587 175.914Z" fill="#ED1B24" stroke="#F09A33" stroke-width="2"/>
<path d="M55.632 174.989L60.3354 185.737L60.3647 185.806L60.4048 185.87L66.4162 195.418L45.6488 205.061L45.5972 205.084L45.5479 205.114L25.2989 217.489L18.4497 208.477L18.4073 208.421L18.3585 208.372L10.589 200.647L30.9986 186.208L55.632 174.989Z" fill="#ED1B24" stroke="#F09A33" stroke-width="2"/>
<path d="M31.1411 214.531C27.5652 205.28 25.9537 200.814 21.0203 192.732L26.47 188.45L35.423 186.893H62.2823L67.732 195.847C52.5759 201.228 44.5457 205.321 31.1411 214.531Z" fill="#BB111A" stroke="#B91419"/>
<path d="M261.586 215.31C265.161 206.059 266.773 201.593 271.706 193.511L266.257 189.229L257.304 187.672H230.444L224.995 196.625C240.151 202.006 248.181 206.099 261.586 215.31Z" fill="#BB111A" stroke="#B91419"/>
<path d="M78.9638 180.788L67.5978 183.984L67.5839 183.989L67.5705 183.992L55.1141 187.886L55.084 187.895L55.055 187.906L41.8204 192.966L41.7593 192.99L41.7015 193.021L28.2927 200.269L25.2026 192.368L25.1797 192.311L25.1505 192.256L20.0895 182.914L20.0272 182.798L19.9361 182.701L12.5397 174.916L12.5038 174.879L12.4653 174.846L5.27897 168.687L17.7958 160.104L60.3706 136.536L78.9638 180.788Z" fill="#ED1B24" stroke="#F09A33" stroke-width="2"/>
<path d="M44.3761 193.511C58.5225 187 66.5465 184.424 80.9669 181.833L79.4099 176.383L76.685 171.323L66.9534 150.692H41.262L30.3626 151.86L22.5773 156.531C33.1746 170.321 37.9518 178.689 44.3761 193.511Z" fill="#C2151C"/>
<path d="M214.036 182.265L225.402 185.462L225.416 185.466L225.43 185.469L237.886 189.363L237.916 189.372L237.945 189.383L251.18 194.443L251.241 194.467L251.298 194.498L264.707 201.746L267.797 193.845L267.82 193.788L267.85 193.733L272.91 184.391L272.973 184.275L273.064 184.179L280.46 176.393L280.496 176.356L280.535 176.323L287.721 170.164L275.204 161.581L232.629 138.013L214.036 182.265Z" fill="#ED1B24" stroke="#F09A33" stroke-width="2"/>
<path d="M249.908 195.457C235.761 188.946 227.737 186.37 213.317 183.779L214.874 178.33L217.599 173.269L227.33 152.638H253.022L263.921 153.806L271.706 158.477C261.109 172.267 256.332 180.635 249.908 195.457Z" fill="#C2151C"/>
<path d="M146.262 115.571C187.254 115.562 228.662 126.596 273.528 149.56L266.898 155.12L266.844 155.166L266.796 155.219L260.178 162.587L260.151 162.617L260.127 162.649L253.508 171.315L253.462 171.375L253.425 171.443L251.089 175.719L251.082 175.731L251.076 175.743L248.713 180.378C203.412 168.917 175.245 162.062 146.916 161.423C118.568 160.784 90.1132 166.367 44.1993 179.637L41.0656 173.262L36.7863 164.362L36.7433 164.272L36.6827 164.192L33.1788 159.56L33.1632 159.539L33.1466 159.52L29.254 154.887L29.2042 154.828L29.1466 154.778L21.3195 147.926C64.6486 126.626 105.283 115.581 146.262 115.571Z" fill="#ED1B24" stroke="#FABD47" stroke-width="2"/>
<path d="M146.305 115.62C187.305 115.609 228.714 125.599 273.568 146.536L266.886 152.659L266.833 152.706L266.788 152.761L260.171 160.811L260.147 160.841L260.124 160.873L253.506 170.34L253.464 170.4L253.432 170.466L251.096 175.137L251.09 175.149L251.084 175.161L248.717 180.234C203.452 167.721 175.289 160.235 146.962 159.536C118.613 158.838 90.1617 164.936 44.2805 179.423L41.1419 172.449L36.8645 162.725L36.8255 162.637L36.7708 162.559L33.2678 157.498L33.2385 157.457L29.346 152.397L29.2991 152.337L29.2444 152.285L21.3704 144.752C64.6874 125.63 105.321 115.63 146.305 115.62Z" fill="#ED1B24" stroke="#F09A33" stroke-width="2"/>
<path d="M56.4573 165.801C55.9398 166.014 55.4825 166.039 55.0854 165.874C54.6971 165.688 54.3929 165.329 54.173 164.797L48.9494 152.153C48.7173 151.591 48.6732 151.108 48.8172 150.702C48.9759 150.29 49.2845 149.989 49.743 149.8C50.1422 149.635 50.479 149.591 50.7532 149.668C51.0361 149.725 51.3914 149.872 51.819 150.111L63.701 156.809L63.1021 157.057L59.2715 147.785C59.0577 147.267 59.0258 146.813 59.1759 146.422C59.3347 146.01 59.6729 145.698 60.1904 145.484C60.708 145.27 61.161 145.256 61.5493 145.442C61.9464 145.607 62.2518 145.948 62.4657 146.465L67.7534 159.264C67.955 159.752 67.9912 160.196 67.862 160.596C67.7267 160.98 67.4446 161.261 67.0157 161.439C66.6017 161.61 66.2354 161.666 65.9168 161.607C65.613 161.542 65.2473 161.39 64.8197 161.151L52.9598 154.444L53.5365 154.205L57.3671 163.477C57.587 164.01 57.625 164.479 57.481 164.884C57.3309 165.275 56.9897 165.581 56.4573 165.801Z" fill="white"/>
<path d="M75.0805 158.94C73.8898 159.364 72.7666 159.501 71.7109 159.351C70.6703 159.195 69.7531 158.766 68.9595 158.063C68.1658 157.361 67.5569 156.414 67.1329 155.223C66.8161 154.334 66.6673 153.487 66.6863 152.682C66.7053 151.877 66.8825 151.134 67.2178 150.454C67.5628 149.754 68.0515 149.147 68.6837 148.633C69.3106 148.104 70.0686 147.681 70.9579 147.365C72.1487 146.94 73.2644 146.806 74.305 146.962C75.3607 147.113 76.2827 147.532 77.071 148.219C77.8743 148.901 78.4881 149.837 78.9121 151.028C79.2342 151.933 79.3782 152.79 79.3441 153.6C79.3251 154.405 79.1506 155.155 78.8207 155.85C78.4907 156.545 78.0048 157.16 77.3628 157.694C76.7306 158.208 75.9698 158.624 75.0805 158.94ZM74.1707 156.385C74.6681 156.208 75.0547 155.935 75.3306 155.565C75.6064 155.195 75.7666 154.739 75.8112 154.196C75.8505 153.639 75.7386 152.991 75.4756 152.252C75.0837 151.152 74.5704 150.426 73.9357 150.075C73.2957 149.708 72.6064 149.656 71.8678 149.919C71.3855 150.091 70.9962 150.357 70.6999 150.717C70.4186 151.072 70.2584 151.529 70.2192 152.086C70.1896 152.623 70.3064 153.261 70.5694 153.999C70.9613 155.1 71.4799 155.841 72.1254 156.222C72.7654 156.589 73.4472 156.643 74.1707 156.385Z" fill="white"/>
<path d="M81.9667 156.55C81.6304 156.654 81.3217 156.658 81.0403 156.561C80.7542 156.448 80.5303 156.267 80.3686 156.015C80.2069 155.764 80.1145 155.466 80.0914 155.121C80.0836 154.772 80.167 154.419 80.3415 154.064L83.8681 145.583L84.1169 146.385L79.1425 147.928C78.7299 148.056 78.3734 148.04 78.0731 147.882C77.7728 147.724 77.561 147.446 77.4378 147.049C77.3051 146.621 77.3203 146.265 77.4832 145.98C77.6413 145.679 77.9267 145.465 78.3393 145.337L84.9642 143.283C85.3768 143.155 85.7338 143.145 86.0352 143.253C86.3366 143.36 86.5681 143.54 86.7298 143.791C86.9021 144.022 86.9997 144.31 87.0228 144.655C87.0565 144.98 86.986 145.32 86.8115 145.675L83.19 154.336L82.9128 153.442L88.231 151.793C89.1021 151.523 89.6703 151.816 89.9357 152.672C90.0636 153.085 90.0485 153.441 89.8903 153.741C89.7275 154.026 89.4397 154.233 89.0271 154.361L81.9667 156.55Z" fill="white"/>
<path d="M96.5829 152.743C95.2393 153.107 94.0162 153.181 92.9136 152.966C91.8223 152.731 90.8949 152.244 90.1315 151.506C89.3793 150.748 88.8401 149.767 88.5139 148.562C88.1961 147.389 88.1652 146.295 88.421 145.281C88.6727 144.251 89.1718 143.37 89.9183 142.638C90.676 141.885 91.6186 141.357 92.746 141.051C93.5645 140.83 94.3435 140.768 95.0828 140.866C95.818 140.949 96.494 141.18 97.1107 141.56C97.7233 141.925 98.2514 142.437 98.695 143.096C99.1345 143.739 99.4734 144.501 99.7117 145.381C99.7912 145.675 99.7592 145.924 99.6157 146.128C99.468 146.318 99.2165 146.46 98.8613 146.557L91.5872 148.526L91.098 146.719L96.9358 145.138L96.6529 145.563C96.4815 144.93 96.2467 144.43 95.9484 144.063C95.646 143.681 95.2879 143.43 94.8742 143.31C94.4759 143.185 94.0219 143.192 93.5122 143.33C92.9408 143.485 92.4899 143.748 92.1594 144.119C91.829 144.491 91.6225 144.953 91.5401 145.505C91.4577 146.058 91.5106 146.682 91.6988 147.377L91.749 147.562C92.0668 148.736 92.5712 149.528 93.2623 149.937C93.9688 150.343 94.8626 150.399 95.9437 150.106C96.3143 150.006 96.7265 149.845 97.1801 149.622C97.6338 149.4 98.042 149.132 98.4046 148.818C98.7138 148.552 99.0158 148.413 99.3105 148.399C99.601 148.37 99.8507 148.435 100.059 148.594C100.268 148.753 100.416 148.962 100.502 149.22C100.604 149.474 100.621 149.752 100.554 150.052C100.481 150.336 100.306 150.608 100.028 150.865C99.5823 151.301 99.0463 151.678 98.4198 151.997C97.813 152.327 97.2007 152.576 96.5829 152.743Z" fill="white"/>
<path d="M106.663 150.543C105.976 150.696 105.251 150.792 104.49 150.831C103.743 150.866 103.04 150.801 102.381 150.636C102.034 150.55 101.764 150.405 101.571 150.202C101.391 149.98 101.28 149.742 101.24 149.489C101.2 149.235 101.228 148.991 101.323 148.757C101.434 148.519 101.6 148.343 101.82 148.228C102.053 148.095 102.331 148.057 102.656 148.116C103.355 148.239 103.983 148.296 104.538 148.287C105.093 148.278 105.629 148.216 106.144 148.102C106.816 147.952 107.277 147.743 107.529 147.474C107.792 147.186 107.886 146.87 107.809 146.526C107.74 146.214 107.586 146.002 107.348 145.891C107.111 145.78 106.79 145.737 106.385 145.761L103.826 145.864C102.82 145.908 101.992 145.723 101.343 145.311C100.706 144.879 100.293 144.241 100.105 143.398C99.9315 142.617 100.001 141.897 100.313 141.237C100.621 140.562 101.125 139.991 101.824 139.523C102.536 139.037 103.383 138.685 104.367 138.466C105.07 138.309 105.732 138.227 106.353 138.22C106.975 138.213 107.59 138.289 108.199 138.448C108.512 138.526 108.749 138.67 108.91 138.88C109.087 139.087 109.18 139.32 109.189 139.58C109.213 139.837 109.17 140.084 109.059 140.322C108.948 140.56 108.775 140.738 108.539 140.856C108.318 140.971 108.038 141 107.698 140.945C107.146 140.822 106.649 140.761 106.206 140.761C105.76 140.745 105.342 140.781 104.951 140.868C104.249 141.025 103.767 141.255 103.507 141.558C103.243 141.847 103.15 142.163 103.226 142.506C103.285 142.772 103.422 142.979 103.635 143.128C103.861 143.258 104.168 143.313 104.557 143.292L107.116 143.189C108.169 143.135 109.019 143.306 109.664 143.704C110.307 144.085 110.725 144.713 110.92 145.588C111.184 146.775 110.924 147.816 110.14 148.712C109.368 149.589 108.209 150.199 106.663 150.543Z" fill="white"/>
<path d="M122.879 147.866C121.867 148.022 120.936 147.915 120.086 147.545C119.251 147.172 118.549 146.56 117.981 145.708C117.412 144.857 117.032 143.807 116.839 142.558C116.646 141.309 116.693 140.2 116.981 139.233C117.269 138.266 117.754 137.479 118.438 136.871C119.137 136.261 119.992 135.878 121.004 135.722C121.922 135.58 122.762 135.677 123.526 136.013C124.306 136.346 124.878 136.848 125.24 137.521L124.98 137.561L124.112 131.94C124.019 131.339 124.099 130.865 124.354 130.518C124.605 130.155 125.023 129.929 125.609 129.839C126.178 129.751 126.645 129.84 127.01 130.108C127.373 130.359 127.6 130.786 127.693 131.387L129.777 144.883C129.867 145.468 129.779 145.943 129.511 146.308C129.26 146.671 128.849 146.896 128.28 146.984C127.711 147.072 127.244 146.982 126.879 146.714C126.529 146.445 126.309 146.017 126.219 145.432L125.97 143.819L126.374 144.704C126.272 145.513 125.894 146.211 125.24 146.797C124.599 147.366 123.812 147.722 122.879 147.866ZM123.533 145.021C124.055 144.941 124.486 144.744 124.826 144.433C125.167 144.121 125.41 143.703 125.556 143.179C125.699 142.639 125.711 141.981 125.591 141.206C125.413 140.052 125.045 139.243 124.488 138.778C123.928 138.298 123.26 138.118 122.486 138.237C121.98 138.316 121.547 138.504 121.189 138.802C120.846 139.098 120.603 139.516 120.459 140.056C120.329 140.578 120.324 141.226 120.444 142.001C120.622 143.155 120.992 143.981 121.555 144.477C122.115 144.957 122.774 145.138 123.533 145.021Z" fill="white"/>
<path d="M135.967 146.531C134.582 146.672 133.364 146.546 132.311 146.155C131.272 145.746 130.436 145.115 129.802 144.263C129.183 143.393 128.811 142.337 128.684 141.096C128.561 139.886 128.709 138.801 129.126 137.842C129.541 136.867 130.177 136.079 131.032 135.477C131.902 134.858 132.918 134.49 134.08 134.372C134.924 134.286 135.703 134.352 136.416 134.568C137.128 134.77 137.757 135.108 138.304 135.583C138.85 136.042 139.288 136.633 139.618 137.355C139.947 138.061 140.158 138.868 140.25 139.775C140.281 140.078 140.209 140.318 140.034 140.497C139.858 140.66 139.586 140.76 139.22 140.797L131.723 141.559L131.534 139.696L137.551 139.085L137.202 139.458C137.136 138.805 136.986 138.274 136.751 137.863C136.515 137.437 136.202 137.131 135.813 136.946C135.441 136.758 134.991 136.691 134.466 136.745C133.877 136.805 133.39 136.991 133.003 137.304C132.617 137.616 132.338 138.039 132.167 138.571C131.996 139.103 131.947 139.727 132.02 140.443L132.039 140.634C132.162 141.844 132.531 142.707 133.146 143.223C133.778 143.738 134.65 143.939 135.765 143.826C136.147 143.787 136.58 143.695 137.063 143.549C137.547 143.403 137.993 143.205 138.402 142.955C138.75 142.742 139.071 142.653 139.364 142.688C139.656 142.707 139.891 142.811 140.072 143.002C140.252 143.193 140.364 143.423 140.407 143.692C140.466 143.959 140.438 144.235 140.322 144.521C140.205 144.79 139.988 145.029 139.672 145.238C139.161 145.595 138.571 145.881 137.901 146.093C137.249 146.321 136.604 146.466 135.967 146.531Z" fill="white"/>
<path d="M162.721 147.95C162.987 148.36 163.091 148.734 163.035 149.071C162.979 149.425 162.826 149.716 162.575 149.946C162.325 150.192 162.016 150.351 161.65 150.423C161.299 150.496 160.938 150.464 160.567 150.328C160.212 150.208 159.903 149.959 159.638 149.581L157.871 146.837C157.655 146.522 157.378 146.288 157.038 146.136C156.715 145.999 156.298 145.937 155.786 145.948L158.592 144.804C159.328 144.787 159.931 144.901 160.401 145.147C160.886 145.392 161.328 145.822 161.727 146.437L162.721 147.95ZM155.81 145.948C154.146 145.986 152.674 145.66 151.394 144.969C150.13 144.261 149.131 143.26 148.397 141.964C147.679 140.669 147.3 139.149 147.26 137.405C147.23 136.078 147.394 134.882 147.754 133.817C148.129 132.736 148.676 131.811 149.395 131.043C150.113 130.258 150.98 129.646 151.994 129.207C153.024 128.767 154.163 128.533 155.411 128.504C157.106 128.466 158.586 128.792 159.85 129.483C161.114 130.174 162.105 131.168 162.823 132.464C163.557 133.743 163.943 135.255 163.983 136.999C164.014 138.326 163.841 139.53 163.466 140.611C163.09 141.692 162.544 142.625 161.825 143.41C161.107 144.194 160.241 144.806 159.227 145.246C158.212 145.685 157.073 145.919 155.81 145.948ZM155.737 142.781C156.681 142.759 157.476 142.525 158.122 142.078C158.783 141.615 159.281 140.963 159.614 140.123C159.962 139.267 160.123 138.263 160.097 137.112C160.056 135.352 159.633 134.001 158.828 133.059C158.022 132.102 156.907 131.639 155.483 131.672C154.555 131.693 153.76 131.927 153.099 132.374C152.437 132.822 151.939 133.465 151.606 134.305C151.273 135.145 151.12 136.149 151.147 137.316C151.187 139.06 151.61 140.419 152.417 141.392C153.223 142.35 154.33 142.813 155.737 142.781Z" fill="white"/>
<path d="M168.058 146.673C167.067 146.623 166.253 146.397 165.617 145.997C164.981 145.596 164.521 145.02 164.239 144.269C163.973 143.502 163.869 142.568 163.925 141.465L164.2 136.048C164.23 135.441 164.405 134.993 164.724 134.705C165.059 134.417 165.515 134.288 166.09 134.318C166.665 134.347 167.105 134.521 167.409 134.841C167.713 135.161 167.85 135.625 167.819 136.232L167.539 141.745C167.503 142.448 167.62 142.982 167.89 143.349C168.161 143.699 168.608 143.89 169.231 143.921C169.918 143.956 170.489 143.745 170.945 143.287C171.418 142.815 171.674 142.179 171.715 141.38L171.966 136.442C171.996 135.835 172.171 135.387 172.49 135.099C172.825 134.812 173.281 134.683 173.856 134.712C174.447 134.742 174.887 134.916 175.175 135.235C175.479 135.555 175.616 136.019 175.585 136.626L175.153 145.135C175.09 146.366 174.476 146.951 173.31 146.892C172.734 146.863 172.303 146.681 172.016 146.346C171.728 146.011 171.599 145.547 171.629 144.956L171.711 143.35L172.023 144.303C171.63 145.1 171.095 145.706 170.417 146.12C169.739 146.534 168.953 146.719 168.058 146.673Z" fill="white"/>
<path d="M179.21 147.819C178.351 147.73 177.597 147.482 176.947 147.076C176.298 146.67 175.812 146.161 175.49 145.548C175.168 144.935 175.045 144.271 175.12 143.555C175.21 142.695 175.503 142.042 176 141.596C176.499 141.133 177.261 140.851 178.285 140.749C179.311 140.631 180.651 140.659 182.306 140.832L183.571 140.964L183.376 142.826L182.135 142.696C181.324 142.611 180.658 142.59 180.139 142.632C179.637 142.66 179.264 142.766 179.02 142.949C178.791 143.134 178.658 143.41 178.62 143.776C178.573 144.222 178.686 144.603 178.958 144.922C179.247 145.241 179.685 145.432 180.274 145.494C180.736 145.542 181.152 145.481 181.524 145.311C181.913 145.126 182.23 144.862 182.476 144.517C182.722 144.157 182.871 143.738 182.921 143.261L183.208 140.516C183.281 139.816 183.174 139.306 182.885 138.986C182.599 138.65 182.074 138.442 181.31 138.363C180.88 138.318 180.405 138.324 179.884 138.382C179.381 138.426 178.814 138.536 178.184 138.711C177.818 138.834 177.503 138.841 177.241 138.733C176.981 138.609 176.79 138.429 176.67 138.191C176.552 137.937 176.507 137.675 176.536 137.405C176.565 137.118 176.673 136.856 176.859 136.618C177.047 136.364 177.33 136.193 177.709 136.104C178.489 135.88 179.211 135.746 179.875 135.703C180.555 135.661 181.173 135.67 181.73 135.728C182.955 135.856 183.939 136.144 184.68 136.592C185.439 137.025 185.979 137.637 186.298 138.426C186.619 139.2 186.719 140.167 186.598 141.329L186.043 146.628C185.982 147.217 185.791 147.655 185.471 147.944C185.152 148.232 184.721 148.348 184.18 148.291C183.639 148.235 183.234 148.031 182.965 147.681C182.712 147.333 182.616 146.865 182.678 146.276L182.77 145.393L182.922 145.553C182.77 146.084 182.514 146.532 182.154 146.897C181.812 147.247 181.39 147.509 180.89 147.681C180.391 147.838 179.831 147.884 179.21 147.819Z" fill="white"/>
<path d="M190.73 149.569C189.323 149.35 188.332 148.799 187.756 147.916C187.184 147.018 187.018 145.793 187.259 144.244L188.922 133.549C189.015 132.948 189.235 132.521 189.582 132.267C189.948 132 190.423 131.912 191.008 132.003C191.577 132.091 191.987 132.317 192.238 132.68C192.508 133.029 192.596 133.505 192.503 134.105L190.862 144.659C190.761 145.307 190.82 145.81 191.04 146.168C191.278 146.513 191.626 146.72 192.085 146.792C192.211 146.811 192.331 146.822 192.444 146.823C192.557 146.825 192.677 146.835 192.803 146.855C193.061 146.863 193.223 146.969 193.288 147.173C193.372 147.364 193.372 147.729 193.288 148.266C193.215 148.74 193.063 149.089 192.834 149.313C192.608 149.52 192.29 149.633 191.883 149.651C191.722 149.642 191.538 149.629 191.33 149.613C191.12 149.613 190.92 149.598 190.73 149.569Z" fill="white"/>
<path d="M196.271 150.586C195.689 150.476 195.273 150.226 195.021 149.836C194.787 149.434 194.729 148.926 194.845 148.313L196.371 140.248C196.49 139.619 196.73 139.168 197.091 138.895C197.471 138.608 197.951 138.52 198.533 138.63C199.099 138.737 199.499 138.992 199.732 139.394C199.984 139.784 200.05 140.293 199.931 140.922L198.406 148.987C198.29 149.6 198.05 150.051 197.685 150.341C197.324 150.614 196.853 150.696 196.271 150.586ZM198.899 136.696C198.239 136.571 197.756 136.325 197.451 135.958C197.165 135.578 197.075 135.106 197.182 134.54C197.292 133.958 197.548 133.55 197.951 133.317C198.372 133.071 198.912 133.011 199.573 133.136C200.233 133.261 200.706 133.513 200.993 133.893C201.282 134.257 201.372 134.73 201.262 135.311C201.155 135.877 200.898 136.285 200.493 136.534C200.091 136.767 199.559 136.821 198.899 136.696Z" fill="white"/>
<path d="M204.761 152.482C203.759 152.267 202.927 151.835 202.265 151.186C201.618 150.54 201.18 149.718 200.953 148.72C200.725 147.722 200.743 146.605 201.008 145.369C201.273 144.133 201.712 143.115 202.326 142.314C202.939 141.512 203.674 140.95 204.529 140.626C205.399 140.305 206.335 140.252 207.336 140.467C208.244 140.661 208.995 141.051 209.589 141.637C210.199 142.226 210.554 142.899 210.653 143.657L210.395 143.602L211.587 138.04C211.715 137.445 211.959 137.031 212.32 136.798C212.684 136.549 213.156 136.486 213.735 136.61C214.298 136.731 214.702 136.981 214.948 137.361C215.197 137.726 215.258 138.205 215.131 138.799L212.269 152.152C212.144 152.731 211.892 153.143 211.512 153.389C211.148 153.638 210.684 153.703 210.121 153.582C209.558 153.461 209.153 153.211 208.908 152.831C208.677 152.454 208.624 151.976 208.749 151.398L209.091 149.802L209.153 150.772C208.769 151.492 208.167 152.009 207.347 152.324C206.546 152.627 205.684 152.68 204.761 152.482ZM206.385 150.056C206.901 150.167 207.374 150.138 207.803 149.968C208.232 149.798 208.608 149.494 208.931 149.056C209.258 148.602 209.503 147.992 209.667 147.226C209.912 146.083 209.857 145.196 209.502 144.564C209.15 143.915 208.59 143.509 207.824 143.345C207.323 143.238 206.852 143.259 206.411 143.41C205.985 143.564 205.609 143.868 205.283 144.322C204.975 144.763 204.739 145.367 204.575 146.134C204.33 147.276 204.382 148.179 204.731 148.843C205.083 149.491 205.634 149.895 206.385 150.056Z" fill="white"/>
<path d="M215.161 155.229C214.325 155.009 213.618 154.648 213.039 154.147C212.459 153.647 212.058 153.069 211.834 152.414C211.61 151.759 211.589 151.083 211.773 150.387C211.994 149.552 212.385 148.952 212.944 148.587C213.508 148.206 214.304 148.044 215.332 148.101C216.364 148.142 217.684 148.375 219.293 148.8L220.522 149.125L220.044 150.935L218.838 150.616C218.049 150.407 217.394 150.284 216.875 150.246C216.375 150.197 215.99 150.244 215.72 150.388C215.466 150.536 215.292 150.788 215.198 151.143C215.083 151.576 215.136 151.971 215.357 152.327C215.593 152.687 215.997 152.943 216.569 153.094C217.018 153.213 217.439 153.217 217.832 153.106C218.245 152.983 218.599 152.77 218.894 152.468C219.193 152.15 219.404 151.759 219.527 151.294L220.232 148.626C220.412 147.945 220.384 147.425 220.148 147.065C219.917 146.689 219.43 146.403 218.687 146.207C218.269 146.097 217.799 146.03 217.275 146.008C216.771 145.974 216.194 145.995 215.545 146.072C215.164 146.137 214.852 146.095 214.61 145.949C214.371 145.786 214.211 145.579 214.129 145.325C214.051 145.056 214.047 144.79 214.116 144.527C214.19 144.249 214.337 144.006 214.557 143.8C214.781 143.578 215.087 143.452 215.476 143.422C216.281 143.32 217.014 143.299 217.677 143.358C218.356 143.422 218.965 143.525 219.507 143.668C220.698 143.983 221.626 144.418 222.289 144.974C222.973 145.519 223.412 146.206 223.607 147.035C223.805 147.849 223.755 148.821 223.457 149.95L222.096 155.101C221.944 155.673 221.689 156.078 221.329 156.313C220.968 156.549 220.525 156.598 219.999 156.459C219.473 156.32 219.104 156.057 218.892 155.669C218.695 155.286 218.673 154.809 218.824 154.236L219.051 153.378L219.177 153.56C218.945 154.062 218.623 154.465 218.211 154.77C217.819 155.063 217.363 155.257 216.841 155.351C216.324 155.429 215.764 155.389 215.161 155.229Z" fill="white"/>
<path d="M225.346 159.222C224.369 158.916 223.581 158.409 222.981 157.701C222.397 156.998 222.037 156.139 221.902 155.124C221.768 154.109 221.89 152.999 222.268 151.793C222.646 150.587 223.178 149.613 223.863 148.872C224.548 148.131 225.331 147.639 226.212 147.395C227.108 147.157 228.045 147.19 229.022 147.497C229.908 147.774 230.619 148.232 231.157 148.87C231.71 149.513 232.001 150.216 232.03 150.98L231.778 150.901L233.48 145.473C233.662 144.893 233.943 144.504 234.324 144.305C234.71 144.09 235.185 144.071 235.75 144.249C236.3 144.421 236.679 144.708 236.889 145.109C237.103 145.494 237.12 145.977 236.938 146.558L232.852 159.588C232.675 160.153 232.386 160.54 231.985 160.75C231.599 160.964 231.132 160.985 230.582 160.813C230.032 160.641 229.653 160.354 229.443 159.953C229.249 159.557 229.24 159.076 229.417 158.511L229.906 156.954L229.877 157.926C229.429 158.607 228.782 159.067 227.936 159.305C227.11 159.532 226.247 159.504 225.346 159.222ZM227.188 156.957C227.692 157.115 228.165 157.129 228.608 157C229.051 156.871 229.454 156.603 229.816 156.197C230.183 155.775 230.484 155.19 230.718 154.442C231.068 153.328 231.095 152.439 230.799 151.776C230.509 151.098 229.99 150.642 229.242 150.408C228.753 150.254 228.282 150.232 227.828 150.342C227.39 150.456 226.988 150.724 226.621 151.145C226.274 151.556 225.983 152.136 225.749 152.884C225.399 153.999 225.367 154.902 225.653 155.596C225.944 156.274 226.455 156.727 227.188 156.957Z" fill="white"/>
<path d="M237.621 163.644C236.312 163.17 235.268 162.528 234.489 161.719C233.73 160.9 233.25 159.969 233.049 158.926C232.869 157.874 232.991 156.761 233.415 155.587C233.829 154.444 234.432 153.531 235.224 152.847C236.021 152.149 236.936 151.714 237.967 151.543C239.02 151.363 240.095 151.471 241.193 151.869C241.991 152.157 242.664 152.554 243.213 153.059C243.767 153.549 244.188 154.126 244.474 154.792C244.766 155.442 244.905 156.164 244.89 156.958C244.88 157.738 244.72 158.556 244.409 159.413C244.306 159.699 244.137 159.885 243.902 159.97C243.672 160.04 243.384 160.012 243.038 159.887L235.952 157.322L236.589 155.562L242.276 157.62L241.801 157.806C242.024 157.189 242.119 156.645 242.086 156.173C242.057 155.687 241.909 155.275 241.639 154.939C241.384 154.609 241.008 154.354 240.512 154.174C239.955 153.973 239.435 153.929 238.951 154.043C238.468 154.158 238.033 154.417 237.648 154.822C237.263 155.228 236.949 155.769 236.703 156.446L236.638 156.626C236.224 157.77 236.183 158.707 236.513 159.44C236.859 160.177 237.558 160.737 238.611 161.118C238.972 161.249 239.402 161.353 239.901 161.432C240.401 161.51 240.889 161.525 241.366 161.477C241.772 161.436 242.099 161.495 242.348 161.654C242.602 161.797 242.77 161.993 242.849 162.243C242.929 162.493 242.93 162.749 242.852 163.01C242.79 163.277 242.645 163.514 242.417 163.72C242.194 163.912 241.895 164.034 241.519 164.085C240.904 164.185 240.249 164.186 239.553 164.088C238.866 164.009 238.222 163.861 237.621 163.644Z" fill="white"/>
<mask id="path-27-outside-1_37_89" maskUnits="userSpaceOnUse" x="10" y="4.48047" width="288" height="67" fill="black">
<rect fill="white" x="10" y="4.48047" width="288" height="67"/>
<path fill-rule="evenodd" clip-rule="evenodd" d="M106.094 7.43077C115.465 7.3897 123.972 7.11042 124.998 6.80948C126.025 6.50855 127.24 6.3928 127.698 6.55186C128.882 6.96331 130.023 9.75389 130.612 13.6817C131.64 20.5338 128.89 22.3955 125.44 17.1832C122.878 13.3106 121.209 12.7326 112.594 12.7326C106.048 12.7326 105.375 12.8723 103.658 14.5898C101.869 16.379 101.808 16.7591 102.011 24.8575L102.223 33.268L106.832 33.489C109.696 33.6257 112.447 33.2897 114.097 32.6004C116.353 31.658 116.824 31.0367 117.234 28.4747C117.5 26.8154 118.158 24.8634 118.698 24.1361C119.637 22.8711 119.739 22.8719 121.032 24.1473C122.209 25.3078 122.385 26.8311 122.385 35.8816C122.385 44.9321 122.209 46.4555 121.032 47.6159C119.734 48.8965 119.637 48.8921 118.605 47.5001C118.014 46.7026 117.531 45.2935 117.531 44.3683C117.531 43.4424 116.736 41.7614 115.765 40.6324C114.241 38.8604 113.319 38.5355 109.039 38.263C101.933 37.8104 101.849 37.9351 101.849 48.9585C101.849 61.6427 101.851 61.6442 113.301 61.6442C123.459 61.6442 125.01 60.9124 127.985 54.7122C129.253 52.0695 130.302 50.8209 131.254 50.8194C132.537 50.8164 132.628 51.3197 132.32 56.6425C131.914 63.6574 129.917 68.5142 127.612 68.0908C126.79 67.9399 117.214 67.6039 106.33 67.344C86.698 66.8751 86.5396 66.8587 86.3082 65.2345C86.1386 64.0442 86.6897 63.2795 88.3281 62.432C89.9717 61.5822 90.7415 60.5099 91.1747 58.469C91.893 55.0803 91.9132 18.3511 91.1978 15.7196C90.9185 14.6928 89.6722 13.28 88.4289 12.581C85.8399 11.1242 85.5129 9.40142 87.612 8.27833C88.4737 7.81759 95.9284 7.47558 106.094 7.43077ZM260.905 7.99232C260.905 7.38223 261.278 6.75871 261.733 6.60712C262.189 6.45553 263.734 6.46748 265.165 6.63475C268.254 6.99542 268.323 7.13133 278.404 32.5414C287.542 55.5769 287.777 56.1377 289.412 58.8274C290.217 60.1529 291.778 61.6695 292.879 62.1975C295.971 63.6798 295.634 66.5801 292.268 67.4575C288.462 68.45 274.815 67.816 273.323 66.5779C271.472 65.0411 271.848 63.8851 274.701 62.3483C278.013 60.5651 278.245 59.8572 276.95 55.4955C275.166 49.4872 274.747 49.2005 267.104 48.7651C254.73 48.0595 251.306 49.3491 249.698 55.3193C249.01 57.8724 249.072 58.7199 250.049 60.2127C250.699 61.2051 251.676 62.0175 252.219 62.0175C252.762 62.0175 253.824 62.7001 254.579 63.5342C255.877 64.9679 255.881 65.121 254.668 66.3344C253.568 67.4359 251.559 67.6398 240.53 67.7689C232.927 67.8578 226.852 67.5979 225.659 67.1334C223.43 66.265 216.367 58.5571 206.428 46.1493C204.208 43.3766 202.066 41.1088 201.669 41.1088C201.216 41.1088 201.139 44.6439 201.463 50.6297L201.978 60.1507L204.746 62.5246C207.409 64.8088 207.463 64.9492 206.178 66.2583C205.041 67.4165 203.578 67.6181 196.31 67.6181C189.545 67.6181 187.533 67.3747 186.603 66.4442C185.131 64.9709 185.761 63.2183 188.154 62.1281C189.167 61.6666 190.349 60.3613 190.78 59.2262C191.688 56.8456 191.919 23.2863 191.068 17.682C190.623 14.7593 190.095 13.8042 188.385 12.8282C185.667 11.2772 185.05 9.67025 186.707 8.45829C188.279 7.30905 202.343 7.13805 205.224 8.23352C208.125 9.33645 207.908 9.9779 203.5 13.3375C201.86 14.5875 201.7 15.335 201.343 23.4177C201.003 31.1144 201.1 32.1479 202.164 32.1479C203.261 32.1479 217.231 16.6187 218.128 14.4001C218.338 13.8796 217.632 12.7633 216.558 11.9194C214.163 10.0347 214.062 8.57254 216.287 7.97589C218.484 7.38746 230.572 7.37402 232.094 7.95872C234.211 8.77117 233.501 11.2317 231.006 11.7305C229.757 11.9799 227.008 13.7363 224.897 15.6322C220.367 19.7005 209.38 32.8155 209.38 34.1544C209.38 34.6659 210.809 36.7404 212.554 38.764C214.299 40.7877 218.752 45.9469 222.448 50.2295C229.028 57.8522 234.407 62.7643 236.175 62.7643C238.845 62.7643 243.802 57.0831 245.242 52.3726C245.567 51.3115 248.081 44.5625 250.829 37.3751C256.412 22.7763 260.905 9.67324 260.905 7.99232ZM14.1901 11.3967C12.5324 10.0698 12.684 9.0751 14.6673 8.26189C15.5918 7.8833 19.368 7.6421 23.0599 7.72573C23.8983 7.74484 24.628 7.7292 25.2738 7.71536C26.645 7.68598 27.6378 7.66471 28.4891 8.00131C30.7227 8.88446 31.9822 12.2312 36.5462 24.359C37.3653 26.5357 38.291 28.9954 39.3478 31.7745C43.6297 43.0317 46.2955 49.0526 47.2648 49.6515C48.8397 50.6245 52.5293 42.0235 59.7122 20.6369C61.9069 14.1007 64.1374 8.47695 64.6676 8.14017C66.2537 7.13357 78.2538 7.38746 79.7182 8.45829C81.3849 9.67697 80.7546 11.2787 77.9872 12.8588C74.9114 14.6144 74.6717 16.8136 75.2399 38.071C75.8291 60.1208 75.9389 60.8735 78.7227 62.0265C81.3162 63.1011 81.9001 64.428 80.5769 66.2389C79.6973 67.4419 78.4696 67.6181 70.9484 67.6181C63.5968 67.6181 62.1317 67.418 60.9936 66.2583C59.7085 64.9492 59.7705 64.8029 62.6454 62.367L65.6324 59.8363V41.3253C65.6324 30.1033 65.3546 22.8644 64.9267 22.9436C64.5384 23.0145 63.2353 25.7028 62.0309 28.9175C51.9513 55.8159 47.3805 66.498 45.9498 66.498C44.1695 66.498 39.8429 58.2144 34.2491 44.0958C32.8661 40.6047 30.5408 34.9049 29.0817 31.4295C27.6225 27.9535 26.4285 25.0135 26.4285 24.8956C26.4285 24.7768 26.129 24.6805 25.7631 24.6805C24.9074 24.6805 23.844 52.637 24.5265 57.1876C24.9589 60.0738 25.4629 60.8855 27.6031 62.1482C33.2216 65.4637 28.9144 68.4768 19.5174 67.8048C12.1433 67.2768 10.8634 64.5341 16.5147 61.3716C18.0037 60.5375 19.6257 42.7419 19.6757 26.6765L19.7078 16.3513L17.5505 14.3553C16.3647 13.2576 14.8525 11.9262 14.1901 11.3967ZM139.207 12.581C136.671 11.154 136.297 9.46788 138.253 8.27907C139.033 7.80489 143.079 7.56444 148.299 7.68168C159.127 7.92586 160.373 8.68007 156.024 12.357L153.074 14.8519L152.596 23.585C152.333 28.3881 152.331 38.1644 152.59 45.3107C153.03 57.4363 153.174 58.4145 154.732 59.9737C156.176 61.4179 157.192 61.6442 162.238 61.6442C169.503 61.6442 171.556 60.6174 174.413 55.5552C177.215 50.5902 178.265 49.6896 179.507 51.1853C180.159 51.9709 180.312 53.7533 180.005 56.9823C179.18 65.687 177.284 69.5746 174.48 68.3133C173.755 67.9877 165.098 67.53 155.241 67.2962C137.514 66.8758 137.317 66.8534 137.087 65.2345C136.917 64.0412 137.47 63.278 139.13 62.4208C140.433 61.7457 141.648 60.3725 141.976 59.2038C142.701 56.6126 142.729 18.2175 142.008 15.7196C141.711 14.6928 140.451 13.28 139.207 12.581ZM271.521 42.939C272.001 42.4589 269.304 34.4815 266.193 27.1798C263.917 21.8369 262.132 20.3964 261.43 23.3371C261.205 24.281 259.521 28.9182 257.687 33.6414C255.854 38.3645 254.504 42.4813 254.687 42.789C255.065 43.4267 270.892 43.5671 271.521 42.939Z"/>
</mask>
<path fill-rule="evenodd" clip-rule="evenodd" d="M106.094 7.43077C115.465 7.3897 123.972 7.11042 124.998 6.80948C126.025 6.50855 127.24 6.3928 127.698 6.55186C128.882 6.96331 130.023 9.75389 130.612 13.6817C131.64 20.5338 128.89 22.3955 125.44 17.1832C122.878 13.3106 121.209 12.7326 112.594 12.7326C106.048 12.7326 105.375 12.8723 103.658 14.5898C101.869 16.379 101.808 16.7591 102.011 24.8575L102.223 33.268L106.832 33.489C109.696 33.6257 112.447 33.2897 114.097 32.6004C116.353 31.658 116.824 31.0367 117.234 28.4747C117.5 26.8154 118.158 24.8634 118.698 24.1361C119.637 22.8711 119.739 22.8719 121.032 24.1473C122.209 25.3078 122.385 26.8311 122.385 35.8816C122.385 44.9321 122.209 46.4555 121.032 47.6159C119.734 48.8965 119.637 48.8921 118.605 47.5001C118.014 46.7026 117.531 45.2935 117.531 44.3683C117.531 43.4424 116.736 41.7614 115.765 40.6324C114.241 38.8604 113.319 38.5355 109.039 38.263C101.933 37.8104 101.849 37.9351 101.849 48.9585C101.849 61.6427 101.851 61.6442 113.301 61.6442C123.459 61.6442 125.01 60.9124 127.985 54.7122C129.253 52.0695 130.302 50.8209 131.254 50.8194C132.537 50.8164 132.628 51.3197 132.32 56.6425C131.914 63.6574 129.917 68.5142 127.612 68.0908C126.79 67.9399 117.214 67.6039 106.33 67.344C86.698 66.8751 86.5396 66.8587 86.3082 65.2345C86.1386 64.0442 86.6897 63.2795 88.3281 62.432C89.9717 61.5822 90.7415 60.5099 91.1747 58.469C91.893 55.0803 91.9132 18.3511 91.1978 15.7196C90.9185 14.6928 89.6722 13.28 88.4289 12.581C85.8399 11.1242 85.5129 9.40142 87.612 8.27833C88.4737 7.81759 95.9284 7.47558 106.094 7.43077ZM260.905 7.99232C260.905 7.38223 261.278 6.75871 261.733 6.60712C262.189 6.45553 263.734 6.46748 265.165 6.63475C268.254 6.99542 268.323 7.13133 278.404 32.5414C287.542 55.5769 287.777 56.1377 289.412 58.8274C290.217 60.1529 291.778 61.6695 292.879 62.1975C295.971 63.6798 295.634 66.5801 292.268 67.4575C288.462 68.45 274.815 67.816 273.323 66.5779C271.472 65.0411 271.848 63.8851 274.701 62.3483C278.013 60.5651 278.245 59.8572 276.95 55.4955C275.166 49.4872 274.747 49.2005 267.104 48.7651C254.73 48.0595 251.306 49.3491 249.698 55.3193C249.01 57.8724 249.072 58.7199 250.049 60.2127C250.699 61.2051 251.676 62.0175 252.219 62.0175C252.762 62.0175 253.824 62.7001 254.579 63.5342C255.877 64.9679 255.881 65.121 254.668 66.3344C253.568 67.4359 251.559 67.6398 240.53 67.7689C232.927 67.8578 226.852 67.5979 225.659 67.1334C223.43 66.265 216.367 58.5571 206.428 46.1493C204.208 43.3766 202.066 41.1088 201.669 41.1088C201.216 41.1088 201.139 44.6439 201.463 50.6297L201.978 60.1507L204.746 62.5246C207.409 64.8088 207.463 64.9492 206.178 66.2583C205.041 67.4165 203.578 67.6181 196.31 67.6181C189.545 67.6181 187.533 67.3747 186.603 66.4442C185.131 64.9709 185.761 63.2183 188.154 62.1281C189.167 61.6666 190.349 60.3613 190.78 59.2262C191.688 56.8456 191.919 23.2863 191.068 17.682C190.623 14.7593 190.095 13.8042 188.385 12.8282C185.667 11.2772 185.05 9.67025 186.707 8.45829C188.279 7.30905 202.343 7.13805 205.224 8.23352C208.125 9.33645 207.908 9.9779 203.5 13.3375C201.86 14.5875 201.7 15.335 201.343 23.4177C201.003 31.1144 201.1 32.1479 202.164 32.1479C203.261 32.1479 217.231 16.6187 218.128 14.4001C218.338 13.8796 217.632 12.7633 216.558 11.9194C214.163 10.0347 214.062 8.57254 216.287 7.97589C218.484 7.38746 230.572 7.37402 232.094 7.95872C234.211 8.77117 233.501 11.2317 231.006 11.7305C229.757 11.9799 227.008 13.7363 224.897 15.6322C220.367 19.7005 209.38 32.8155 209.38 34.1544C209.38 34.6659 210.809 36.7404 212.554 38.764C214.299 40.7877 218.752 45.9469 222.448 50.2295C229.028 57.8522 234.407 62.7643 236.175 62.7643C238.845 62.7643 243.802 57.0831 245.242 52.3726C245.567 51.3115 248.081 44.5625 250.829 37.3751C256.412 22.7763 260.905 9.67324 260.905 7.99232ZM14.1901 11.3967C12.5324 10.0698 12.684 9.0751 14.6673 8.26189C15.5918 7.8833 19.368 7.6421 23.0599 7.72573C23.8983 7.74484 24.628 7.7292 25.2738 7.71536C26.645 7.68598 27.6378 7.66471 28.4891 8.00131C30.7227 8.88446 31.9822 12.2312 36.5462 24.359C37.3653 26.5357 38.291 28.9954 39.3478 31.7745C43.6297 43.0317 46.2955 49.0526 47.2648 49.6515C48.8397 50.6245 52.5293 42.0235 59.7122 20.6369C61.9069 14.1007 64.1374 8.47695 64.6676 8.14017C66.2537 7.13357 78.2538 7.38746 79.7182 8.45829C81.3849 9.67697 80.7546 11.2787 77.9872 12.8588C74.9114 14.6144 74.6717 16.8136 75.2399 38.071C75.8291 60.1208 75.9389 60.8735 78.7227 62.0265C81.3162 63.1011 81.9001 64.428 80.5769 66.2389C79.6973 67.4419 78.4696 67.6181 70.9484 67.6181C63.5968 67.6181 62.1317 67.418 60.9936 66.2583C59.7085 64.9492 59.7705 64.8029 62.6454 62.367L65.6324 59.8363V41.3253C65.6324 30.1033 65.3546 22.8644 64.9267 22.9436C64.5384 23.0145 63.2353 25.7028 62.0309 28.9175C51.9513 55.8159 47.3805 66.498 45.9498 66.498C44.1695 66.498 39.8429 58.2144 34.2491 44.0958C32.8661 40.6047 30.5408 34.9049 29.0817 31.4295C27.6225 27.9535 26.4285 25.0135 26.4285 24.8956C26.4285 24.7768 26.129 24.6805 25.7631 24.6805C24.9074 24.6805 23.844 52.637 24.5265 57.1876C24.9589 60.0738 25.4629 60.8855 27.6031 62.1482C33.2216 65.4637 28.9144 68.4768 19.5174 67.8048C12.1433 67.2768 10.8634 64.5341 16.5147 61.3716C18.0037 60.5375 19.6257 42.7419 19.6757 26.6765L19.7078 16.3513L17.5505 14.3553C16.3647 13.2576 14.8525 11.9262 14.1901 11.3967ZM139.207 12.581C136.671 11.154 136.297 9.46788 138.253 8.27907C139.033 7.80489 143.079 7.56444 148.299 7.68168C159.127 7.92586 160.373 8.68007 156.024 12.357L153.074 14.8519L152.596 23.585C152.333 28.3881 152.331 38.1644 152.59 45.3107C153.03 57.4363 153.174 58.4145 154.732 59.9737C156.176 61.4179 157.192 61.6442 162.238 61.6442C169.503 61.6442 171.556 60.6174 174.413 55.5552C177.215 50.5902 178.265 49.6896 179.507 51.1853C180.159 51.9709 180.312 53.7533 180.005 56.9823C179.18 65.687 177.284 69.5746 174.48 68.3133C173.755 67.9877 165.098 67.53 155.241 67.2962C137.514 66.8758 137.317 66.8534 137.087 65.2345C136.917 64.0412 137.47 63.278 139.13 62.4208C140.433 61.7457 141.648 60.3725 141.976 59.2038C142.701 56.6126 142.729 18.2175 142.008 15.7196C141.711 14.6928 140.451 13.28 139.207 12.581ZM271.521 42.939C272.001 42.4589 269.304 34.4815 266.193 27.1798C263.917 21.8369 262.132 20.3964 261.43 23.3371C261.205 24.281 259.521 28.9182 257.687 33.6414C255.854 38.3645 254.504 42.4813 254.687 42.789C255.065 43.4267 270.892 43.5671 271.521 42.939Z" fill="black"/>
<path fill-rule="evenodd" clip-rule="evenodd" d="M106.094 7.43077C115.465 7.3897 123.972 7.11042 124.998 6.80948C126.025 6.50855 127.24 6.3928 127.698 6.55186C128.882 6.96331 130.023 9.75389 130.612 13.6817C131.64 20.5338 128.89 22.3955 125.44 17.1832C122.878 13.3106 121.209 12.7326 112.594 12.7326C106.048 12.7326 105.375 12.8723 103.658 14.5898C101.869 16.379 101.808 16.7591 102.011 24.8575L102.223 33.268L106.832 33.489C109.696 33.6257 112.447 33.2897 114.097 32.6004C116.353 31.658 116.824 31.0367 117.234 28.4747C117.5 26.8154 118.158 24.8634 118.698 24.1361C119.637 22.8711 119.739 22.8719 121.032 24.1473C122.209 25.3078 122.385 26.8311 122.385 35.8816C122.385 44.9321 122.209 46.4555 121.032 47.6159C119.734 48.8965 119.637 48.8921 118.605 47.5001C118.014 46.7026 117.531 45.2935 117.531 44.3683C117.531 43.4424 116.736 41.7614 115.765 40.6324C114.241 38.8604 113.319 38.5355 109.039 38.263C101.933 37.8104 101.849 37.9351 101.849 48.9585C101.849 61.6427 101.851 61.6442 113.301 61.6442C123.459 61.6442 125.01 60.9124 127.985 54.7122C129.253 52.0695 130.302 50.8209 131.254 50.8194C132.537 50.8164 132.628 51.3197 132.32 56.6425C131.914 63.6574 129.917 68.5142 127.612 68.0908C126.79 67.9399 117.214 67.6039 106.33 67.344C86.698 66.8751 86.5396 66.8587 86.3082 65.2345C86.1386 64.0442 86.6897 63.2795 88.3281 62.432C89.9717 61.5822 90.7415 60.5099 91.1747 58.469C91.893 55.0803 91.9132 18.3511 91.1978 15.7196C90.9185 14.6928 89.6722 13.28 88.4289 12.581C85.8399 11.1242 85.5129 9.40142 87.612 8.27833C88.4737 7.81759 95.9284 7.47558 106.094 7.43077ZM260.905 7.99232C260.905 7.38223 261.278 6.75871 261.733 6.60712C262.189 6.45553 263.734 6.46748 265.165 6.63475C268.254 6.99542 268.323 7.13133 278.404 32.5414C287.542 55.5769 287.777 56.1377 289.412 58.8274C290.217 60.1529 291.778 61.6695 292.879 62.1975C295.971 63.6798 295.634 66.5801 292.268 67.4575C288.462 68.45 274.815 67.816 273.323 66.5779C271.472 65.0411 271.848 63.8851 274.701 62.3483C278.013 60.5651 278.245 59.8572 276.95 55.4955C275.166 49.4872 274.747 49.2005 267.104 48.7651C254.73 48.0595 251.306 49.3491 249.698 55.3193C249.01 57.8724 249.072 58.7199 250.049 60.2127C250.699 61.2051 251.676 62.0175 252.219 62.0175C252.762 62.0175 253.824 62.7001 254.579 63.5342C255.877 64.9679 255.881 65.121 254.668 66.3344C253.568 67.4359 251.559 67.6398 240.53 67.7689C232.927 67.8578 226.852 67.5979 225.659 67.1334C223.43 66.265 216.367 58.5571 206.428 46.1493C204.208 43.3766 202.066 41.1088 201.669 41.1088C201.216 41.1088 201.139 44.6439 201.463 50.6297L201.978 60.1507L204.746 62.5246C207.409 64.8088 207.463 64.9492 206.178 66.2583C205.041 67.4165 203.578 67.6181 196.31 67.6181C189.545 67.6181 187.533 67.3747 186.603 66.4442C185.131 64.9709 185.761 63.2183 188.154 62.1281C189.167 61.6666 190.349 60.3613 190.78 59.2262C191.688 56.8456 191.919 23.2863 191.068 17.682C190.623 14.7593 190.095 13.8042 188.385 12.8282C185.667 11.2772 185.05 9.67025 186.707 8.45829C188.279 7.30905 202.343 7.13805 205.224 8.23352C208.125 9.33645 207.908 9.9779 203.5 13.3375C201.86 14.5875 201.7 15.335 201.343 23.4177C201.003 31.1144 201.1 32.1479 202.164 32.1479C203.261 32.1479 217.231 16.6187 218.128 14.4001C218.338 13.8796 217.632 12.7633 216.558 11.9194C214.163 10.0347 214.062 8.57254 216.287 7.97589C218.484 7.38746 230.572 7.37402 232.094 7.95872C234.211 8.77117 233.501 11.2317 231.006 11.7305C229.757 11.9799 227.008 13.7363 224.897 15.6322C220.367 19.7005 209.38 32.8155 209.38 34.1544C209.38 34.6659 210.809 36.7404 212.554 38.764C214.299 40.7877 218.752 45.9469 222.448 50.2295C229.028 57.8522 234.407 62.7643 236.175 62.7643C238.845 62.7643 243.802 57.0831 245.242 52.3726C245.567 51.3115 248.081 44.5625 250.829 37.3751C256.412 22.7763 260.905 9.67324 260.905 7.99232ZM14.1901 11.3967C12.5324 10.0698 12.684 9.0751 14.6673 8.26189C15.5918 7.8833 19.368 7.6421 23.0599 7.72573C23.8983 7.74484 24.628 7.7292 25.2738 7.71536C26.645 7.68598 27.6378 7.66471 28.4891 8.00131C30.7227 8.88446 31.9822 12.2312 36.5462 24.359C37.3653 26.5357 38.291 28.9954 39.3478 31.7745C43.6297 43.0317 46.2955 49.0526 47.2648 49.6515C48.8397 50.6245 52.5293 42.0235 59.7122 20.6369C61.9069 14.1007 64.1374 8.47695 64.6676 8.14017C66.2537 7.13357 78.2538 7.38746 79.7182 8.45829C81.3849 9.67697 80.7546 11.2787 77.9872 12.8588C74.9114 14.6144 74.6717 16.8136 75.2399 38.071C75.8291 60.1208 75.9389 60.8735 78.7227 62.0265C81.3162 63.1011 81.9001 64.428 80.5769 66.2389C79.6973 67.4419 78.4696 67.6181 70.9484 67.6181C63.5968 67.6181 62.1317 67.418 60.9936 66.2583C59.7085 64.9492 59.7705 64.8029 62.6454 62.367L65.6324 59.8363V41.3253C65.6324 30.1033 65.3546 22.8644 64.9267 22.9436C64.5384 23.0145 63.2353 25.7028 62.0309 28.9175C51.9513 55.8159 47.3805 66.498 45.9498 66.498C44.1695 66.498 39.8429 58.2144 34.2491 44.0958C32.8661 40.6047 30.5408 34.9049 29.0817 31.4295C27.6225 27.9535 26.4285 25.0135 26.4285 24.8956C26.4285 24.7768 26.129 24.6805 25.7631 24.6805C24.9074 24.6805 23.844 52.637 24.5265 57.1876C24.9589 60.0738 25.4629 60.8855 27.6031 62.1482C33.2216 65.4637 28.9144 68.4768 19.5174 67.8048C12.1433 67.2768 10.8634 64.5341 16.5147 61.3716C18.0037 60.5375 19.6257 42.7419 19.6757 26.6765L19.7078 16.3513L17.5505 14.3553C16.3647 13.2576 14.8525 11.9262 14.1901 11.3967ZM139.207 12.581C136.671 11.154 136.297 9.46788 138.253 8.27907C139.033 7.80489 143.079 7.56444 148.299 7.68168C159.127 7.92586 160.373 8.68007 156.024 12.357L153.074 14.8519L152.596 23.585C152.333 28.3881 152.331 38.1644 152.59 45.3107C153.03 57.4363 153.174 58.4145 154.732 59.9737C156.176 61.4179 157.192 61.6442 162.238 61.6442C169.503 61.6442 171.556 60.6174 174.413 55.5552C177.215 50.5902 178.265 49.6896 179.507 51.1853C180.159 51.9709 180.312 53.7533 180.005 56.9823C179.18 65.687 177.284 69.5746 174.48 68.3133C173.755 67.9877 165.098 67.53 155.241 67.2962C137.514 66.8758 137.317 66.8534 137.087 65.2345C136.917 64.0412 137.47 63.278 139.13 62.4208C140.433 61.7457 141.648 60.3725 141.976 59.2038C142.701 56.6126 142.729 18.2175 142.008 15.7196C141.711 14.6928 140.451 13.28 139.207 12.581ZM271.521 42.939C272.001 42.4589 269.304 34.4815 266.193 27.1798C263.917 21.8369 262.132 20.3964 261.43 23.3371C261.205 24.281 259.521 28.9182 257.687 33.6414C255.854 38.3645 254.504 42.4813 254.687 42.789C255.065 43.4267 270.892 43.5671 271.521 42.939Z" stroke="white" stroke-width="4" stroke-linejoin="round" mask="url(#path-27-outside-1_37_89)"/>
<mask id="path-28-outside-2_37_89" maskUnits="userSpaceOnUse" x="14.4805" y="0" width="288" height="67" fill="black">
<rect fill="white" x="14.4805" width="288" height="67"/>
<path fill-rule="evenodd" clip-rule="evenodd" d="M110.574 2.9503C119.945 2.90923 128.452 2.62995 129.479 2.32902C130.506 2.02808 131.72 1.91233 132.178 2.07139C133.363 2.48284 134.504 5.27342 135.093 9.20127C136.12 16.0534 133.371 17.915 129.921 12.7027C127.358 8.83014 125.69 8.25216 117.075 8.25216C110.529 8.25216 109.856 8.3918 108.138 10.1093C106.349 11.8985 106.289 12.2786 106.492 20.377L106.703 28.7875L111.313 29.0086C114.177 29.1452 116.928 28.8092 118.577 28.12C120.833 27.1776 121.305 26.5563 121.715 23.9942C121.98 22.335 122.639 20.383 123.178 19.6556C124.117 18.3907 124.219 18.3914 125.513 19.6668C126.69 20.8273 126.865 22.3506 126.865 31.4011C126.865 40.4516 126.69 41.975 125.513 43.1354C124.214 44.4161 124.118 44.4116 123.086 43.0197C122.494 42.2222 122.011 40.8131 122.011 39.8878C122.011 38.9619 121.217 37.281 120.245 36.1519C118.721 34.3799 117.799 34.0551 113.519 33.7825C106.413 33.33 106.33 33.4547 106.33 44.4781C106.33 57.1622 106.331 57.1637 117.781 57.1637C127.94 57.1637 129.491 56.4319 132.466 50.2317C133.734 47.589 134.782 46.3404 135.735 46.3389C137.017 46.336 137.109 46.8393 136.801 52.162C136.394 59.1769 134.398 64.0337 132.092 63.6103C131.271 63.4595 121.694 63.1234 110.81 62.8636C91.1784 62.3946 91.0201 62.3782 90.7886 60.754C90.6191 59.5637 91.1702 58.7991 92.8085 57.9515C94.4521 57.1017 95.222 56.0294 95.6551 53.9885C96.3735 50.5998 96.3936 13.8706 95.6783 11.2391C95.399 10.2124 94.1527 8.79953 92.9093 8.10058C90.3204 6.64369 89.9933 4.92096 92.0924 3.79786C92.9541 3.33712 100.409 2.99511 110.574 2.9503ZM265.386 3.51185C265.386 2.90177 265.758 2.27824 266.214 2.12665C266.669 1.97506 268.214 1.98701 269.646 2.15428C272.734 2.51495 272.804 2.65086 282.884 28.061C292.023 51.0964 292.258 51.6572 293.892 54.347C294.697 55.6724 296.258 57.1891 297.36 57.717C300.452 59.1993 300.114 62.0997 296.749 62.9771C292.943 63.9695 279.295 63.3355 277.803 62.0974C275.952 60.5606 276.328 59.4047 279.182 57.8679C282.493 56.0847 282.726 55.3767 281.43 51.015C279.646 45.0068 279.227 44.72 271.584 44.2847C259.211 43.579 255.786 44.8686 254.179 50.8388C253.491 53.3919 253.552 54.2395 254.529 55.7322C255.18 56.7246 256.157 57.5371 256.7 57.5371C257.242 57.5371 258.304 58.2196 259.059 59.0537C260.357 60.4874 260.362 60.6405 259.149 61.854C258.048 62.9554 256.039 63.1593 245.011 63.2885C237.407 63.3773 231.332 63.1175 230.139 62.653C227.91 61.7845 220.847 54.0767 210.909 41.6688C208.689 38.8962 206.547 36.6283 206.15 36.6283C205.696 36.6283 205.619 40.1634 205.944 46.1493L206.459 55.6702L209.226 58.0441C211.889 60.3284 211.944 60.4688 210.658 61.7778C209.522 62.936 208.058 63.1376 200.79 63.1376C194.026 63.1376 192.014 62.8942 191.083 61.9637C189.612 60.4904 190.242 58.7378 192.634 57.6476C193.647 57.1861 194.829 55.8808 195.261 54.7458C196.168 52.3651 196.399 18.8059 195.548 13.2016C195.104 10.2788 194.576 9.32374 192.865 8.34775C190.147 6.79676 189.53 5.18978 191.187 3.97782C192.759 2.82858 206.823 2.65758 209.705 3.75305C212.605 4.85598 212.389 5.49743 207.981 8.85702C206.34 10.1071 206.18 10.8546 205.823 18.9373C205.484 26.6339 205.581 27.6674 206.644 27.6674C207.742 27.6674 221.711 12.1382 222.609 9.91964C222.818 9.39916 222.113 8.28278 221.039 7.43897C218.643 5.55419 218.543 4.09207 220.768 3.49542C222.964 2.90699 235.052 2.89355 236.575 3.47825C238.692 4.2907 237.982 6.75122 235.486 7.25004C234.238 7.49945 231.489 9.25579 229.377 11.1518C224.847 15.22 213.86 28.335 213.86 29.6739C213.86 30.1854 215.289 32.2599 217.034 34.2836C218.779 36.3072 223.232 41.4665 226.928 45.749C233.509 53.3717 238.887 58.2838 240.656 58.2838C243.325 58.2838 248.282 52.6026 249.723 47.8922C250.048 46.8311 252.562 40.082 255.31 32.8946C260.892 18.2958 265.386 5.19277 265.386 3.51185ZM18.6706 6.91624C17.0128 5.58928 17.1644 4.59463 19.1478 3.78143C20.0722 3.40283 23.8485 3.16163 27.5404 3.24526C28.3788 3.26437 29.1085 3.24873 29.7543 3.2349C31.1255 3.20551 32.1183 3.18424 32.9696 3.52084C35.2031 4.40399 36.4626 7.75074 41.0266 19.8785C41.8458 22.0553 42.7715 24.515 43.8283 27.2941C48.1101 38.5512 50.776 44.5722 51.7452 45.171C53.3201 46.1441 57.0098 37.5431 64.1927 16.1564C66.3873 9.62019 68.6179 3.99649 69.148 3.65971C70.7341 2.6531 82.7343 2.90699 84.1986 3.97782C85.8653 5.1965 85.2351 6.79826 82.4677 8.37836C79.3918 10.134 79.1521 12.3331 79.7204 33.5906C80.3096 55.6403 80.4194 56.3931 83.2032 57.546C85.7966 58.6206 86.3806 59.9475 85.0574 61.7584C84.1777 62.9614 82.9501 63.1376 75.4289 63.1376C68.0772 63.1376 66.6121 62.9375 65.4741 61.7778C64.1889 60.4688 64.2509 60.3224 67.1259 57.8865L70.1128 55.3558V36.8449C70.1128 25.6229 69.835 18.3839 69.4072 18.4631C69.0189 18.534 67.7158 21.2223 66.5113 24.437C56.4318 51.3354 51.861 62.0175 50.4302 62.0175C48.65 62.0175 44.3234 53.7339 38.7295 39.6153C37.3466 36.1243 35.0212 30.4244 33.5621 26.9491C32.103 23.473 30.9089 20.5331 30.9089 20.4151C30.9089 20.2964 30.6095 20.2 30.2436 20.2C29.3878 20.2 28.3245 48.1565 29.007 52.7071C29.4393 55.5933 29.9434 56.405 32.0836 57.6677C37.702 60.9833 33.3948 63.9964 23.9978 63.3243C16.6238 62.7964 15.3439 60.0536 20.9952 56.8911C22.4842 56.057 24.1061 38.2614 24.1562 22.1961L24.1883 11.8709L22.0309 9.87484C20.8451 8.77713 19.333 7.44568 18.6706 6.91624ZM143.688 8.10058C141.152 6.67356 140.778 4.98741 142.733 3.7986C143.514 3.32442 147.56 3.08397 152.779 3.20121C163.608 3.44539 164.853 4.1996 160.504 7.87655L157.554 10.3714L157.077 19.1045C156.814 23.9076 156.812 33.6839 157.071 40.8302C157.511 52.9558 157.654 53.934 159.212 55.4932C160.657 56.9374 161.672 57.1637 166.719 57.1637C173.984 57.1637 176.037 56.1369 178.894 51.0748C181.695 46.1097 182.745 45.2091 183.987 46.7049C184.639 47.4904 184.793 49.2729 184.486 52.5018C183.66 61.2066 181.764 65.0941 178.96 63.8328C178.236 63.5073 169.579 63.0495 159.722 62.8158C141.995 62.3954 141.798 62.373 141.567 60.754C141.397 59.5607 141.951 58.7976 143.61 57.9403C144.914 57.2653 146.129 55.892 146.457 54.7234C147.182 52.1322 147.209 13.737 146.488 11.2391C146.192 10.2124 144.931 8.79953 143.688 8.10058ZM276.001 38.4586C276.481 37.9784 273.784 30.001 270.673 22.6994C268.397 17.3564 266.613 15.916 265.911 18.8566C265.685 19.8005 264.001 24.4378 262.168 29.1609C260.335 33.8841 258.985 38.0008 259.167 38.3085C259.545 38.9462 275.373 39.0866 276.001 38.4586Z"/>
</mask>
<path fill-rule="evenodd" clip-rule="evenodd" d="M110.574 2.9503C119.945 2.90923 128.452 2.62995 129.479 2.32902C130.506 2.02808 131.72 1.91233 132.178 2.07139C133.363 2.48284 134.504 5.27342 135.093 9.20127C136.12 16.0534 133.371 17.915 129.921 12.7027C127.358 8.83014 125.69 8.25216 117.075 8.25216C110.529 8.25216 109.856 8.3918 108.138 10.1093C106.349 11.8985 106.289 12.2786 106.492 20.377L106.703 28.7875L111.313 29.0086C114.177 29.1452 116.928 28.8092 118.577 28.12C120.833 27.1776 121.305 26.5563 121.715 23.9942C121.98 22.335 122.639 20.383 123.178 19.6556C124.117 18.3907 124.219 18.3914 125.513 19.6668C126.69 20.8273 126.865 22.3506 126.865 31.4011C126.865 40.4516 126.69 41.975 125.513 43.1354C124.214 44.4161 124.118 44.4116 123.086 43.0197C122.494 42.2222 122.011 40.8131 122.011 39.8878C122.011 38.9619 121.217 37.281 120.245 36.1519C118.721 34.3799 117.799 34.0551 113.519 33.7825C106.413 33.33 106.33 33.4547 106.33 44.4781C106.33 57.1622 106.331 57.1637 117.781 57.1637C127.94 57.1637 129.491 56.4319 132.466 50.2317C133.734 47.589 134.782 46.3404 135.735 46.3389C137.017 46.336 137.109 46.8393 136.801 52.162C136.394 59.1769 134.398 64.0337 132.092 63.6103C131.271 63.4595 121.694 63.1234 110.81 62.8636C91.1784 62.3946 91.0201 62.3782 90.7886 60.754C90.6191 59.5637 91.1702 58.7991 92.8085 57.9515C94.4521 57.1017 95.222 56.0294 95.6551 53.9885C96.3735 50.5998 96.3936 13.8706 95.6783 11.2391C95.399 10.2124 94.1527 8.79953 92.9093 8.10058C90.3204 6.64369 89.9933 4.92096 92.0924 3.79786C92.9541 3.33712 100.409 2.99511 110.574 2.9503ZM265.386 3.51185C265.386 2.90177 265.758 2.27824 266.214 2.12665C266.669 1.97506 268.214 1.98701 269.646 2.15428C272.734 2.51495 272.804 2.65086 282.884 28.061C292.023 51.0964 292.258 51.6572 293.892 54.347C294.697 55.6724 296.258 57.1891 297.36 57.717C300.452 59.1993 300.114 62.0997 296.749 62.9771C292.943 63.9695 279.295 63.3355 277.803 62.0974C275.952 60.5606 276.328 59.4047 279.182 57.8679C282.493 56.0847 282.726 55.3767 281.43 51.015C279.646 45.0068 279.227 44.72 271.584 44.2847C259.211 43.579 255.786 44.8686 254.179 50.8388C253.491 53.3919 253.552 54.2395 254.529 55.7322C255.18 56.7246 256.157 57.5371 256.7 57.5371C257.242 57.5371 258.304 58.2196 259.059 59.0537C260.357 60.4874 260.362 60.6405 259.149 61.854C258.048 62.9554 256.039 63.1593 245.011 63.2885C237.407 63.3773 231.332 63.1175 230.139 62.653C227.91 61.7845 220.847 54.0767 210.909 41.6688C208.689 38.8962 206.547 36.6283 206.15 36.6283C205.696 36.6283 205.619 40.1634 205.944 46.1493L206.459 55.6702L209.226 58.0441C211.889 60.3284 211.944 60.4688 210.658 61.7778C209.522 62.936 208.058 63.1376 200.79 63.1376C194.026 63.1376 192.014 62.8942 191.083 61.9637C189.612 60.4904 190.242 58.7378 192.634 57.6476C193.647 57.1861 194.829 55.8808 195.261 54.7458C196.168 52.3651 196.399 18.8059 195.548 13.2016C195.104 10.2788 194.576 9.32374 192.865 8.34775C190.147 6.79676 189.53 5.18978 191.187 3.97782C192.759 2.82858 206.823 2.65758 209.705 3.75305C212.605 4.85598 212.389 5.49743 207.981 8.85702C206.34 10.1071 206.18 10.8546 205.823 18.9373C205.484 26.6339 205.581 27.6674 206.644 27.6674C207.742 27.6674 221.711 12.1382 222.609 9.91964C222.818 9.39916 222.113 8.28278 221.039 7.43897C218.643 5.55419 218.543 4.09207 220.768 3.49542C222.964 2.90699 235.052 2.89355 236.575 3.47825C238.692 4.2907 237.982 6.75122 235.486 7.25004C234.238 7.49945 231.489 9.25579 229.377 11.1518C224.847 15.22 213.86 28.335 213.86 29.6739C213.86 30.1854 215.289 32.2599 217.034 34.2836C218.779 36.3072 223.232 41.4665 226.928 45.749C233.509 53.3717 238.887 58.2838 240.656 58.2838C243.325 58.2838 248.282 52.6026 249.723 47.8922C250.048 46.8311 252.562 40.082 255.31 32.8946C260.892 18.2958 265.386 5.19277 265.386 3.51185ZM18.6706 6.91624C17.0128 5.58928 17.1644 4.59463 19.1478 3.78143C20.0722 3.40283 23.8485 3.16163 27.5404 3.24526C28.3788 3.26437 29.1085 3.24873 29.7543 3.2349C31.1255 3.20551 32.1183 3.18424 32.9696 3.52084C35.2031 4.40399 36.4626 7.75074 41.0266 19.8785C41.8458 22.0553 42.7715 24.515 43.8283 27.2941C48.1101 38.5512 50.776 44.5722 51.7452 45.171C53.3201 46.1441 57.0098 37.5431 64.1927 16.1564C66.3873 9.62019 68.6179 3.99649 69.148 3.65971C70.7341 2.6531 82.7343 2.90699 84.1986 3.97782C85.8653 5.1965 85.2351 6.79826 82.4677 8.37836C79.3918 10.134 79.1521 12.3331 79.7204 33.5906C80.3096 55.6403 80.4194 56.3931 83.2032 57.546C85.7966 58.6206 86.3806 59.9475 85.0574 61.7584C84.1777 62.9614 82.9501 63.1376 75.4289 63.1376C68.0772 63.1376 66.6121 62.9375 65.4741 61.7778C64.1889 60.4688 64.2509 60.3224 67.1259 57.8865L70.1128 55.3558V36.8449C70.1128 25.6229 69.835 18.3839 69.4072 18.4631C69.0189 18.534 67.7158 21.2223 66.5113 24.437C56.4318 51.3354 51.861 62.0175 50.4302 62.0175C48.65 62.0175 44.3234 53.7339 38.7295 39.6153C37.3466 36.1243 35.0212 30.4244 33.5621 26.9491C32.103 23.473 30.9089 20.5331 30.9089 20.4151C30.9089 20.2964 30.6095 20.2 30.2436 20.2C29.3878 20.2 28.3245 48.1565 29.007 52.7071C29.4393 55.5933 29.9434 56.405 32.0836 57.6677C37.702 60.9833 33.3948 63.9964 23.9978 63.3243C16.6238 62.7964 15.3439 60.0536 20.9952 56.8911C22.4842 56.057 24.1061 38.2614 24.1562 22.1961L24.1883 11.8709L22.0309 9.87484C20.8451 8.77713 19.333 7.44568 18.6706 6.91624ZM143.688 8.10058C141.152 6.67356 140.778 4.98741 142.733 3.7986C143.514 3.32442 147.56 3.08397 152.779 3.20121C163.608 3.44539 164.853 4.1996 160.504 7.87655L157.554 10.3714L157.077 19.1045C156.814 23.9076 156.812 33.6839 157.071 40.8302C157.511 52.9558 157.654 53.934 159.212 55.4932C160.657 56.9374 161.672 57.1637 166.719 57.1637C173.984 57.1637 176.037 56.1369 178.894 51.0748C181.695 46.1097 182.745 45.2091 183.987 46.7049C184.639 47.4904 184.793 49.2729 184.486 52.5018C183.66 61.2066 181.764 65.0941 178.96 63.8328C178.236 63.5073 169.579 63.0495 159.722 62.8158C141.995 62.3954 141.798 62.373 141.567 60.754C141.397 59.5607 141.951 58.7976 143.61 57.9403C144.914 57.2653 146.129 55.892 146.457 54.7234C147.182 52.1322 147.209 13.737 146.488 11.2391C146.192 10.2124 144.931 8.79953 143.688 8.10058ZM276.001 38.4586C276.481 37.9784 273.784 30.001 270.673 22.6994C268.397 17.3564 266.613 15.916 265.911 18.8566C265.685 19.8005 264.001 24.4378 262.168 29.1609C260.335 33.8841 258.985 38.0008 259.167 38.3085C259.545 38.9462 275.373 39.0866 276.001 38.4586Z" fill="#A35642"/>
<path fill-rule="evenodd" clip-rule="evenodd" d="M110.574 2.9503C119.945 2.90923 128.452 2.62995 129.479 2.32902C130.506 2.02808 131.72 1.91233 132.178 2.07139C133.363 2.48284 134.504 5.27342 135.093 9.20127C136.12 16.0534 133.371 17.915 129.921 12.7027C127.358 8.83014 125.69 8.25216 117.075 8.25216C110.529 8.25216 109.856 8.3918 108.138 10.1093C106.349 11.8985 106.289 12.2786 106.492 20.377L106.703 28.7875L111.313 29.0086C114.177 29.1452 116.928 28.8092 118.577 28.12C120.833 27.1776 121.305 26.5563 121.715 23.9942C121.98 22.335 122.639 20.383 123.178 19.6556C124.117 18.3907 124.219 18.3914 125.513 19.6668C126.69 20.8273 126.865 22.3506 126.865 31.4011C126.865 40.4516 126.69 41.975 125.513 43.1354C124.214 44.4161 124.118 44.4116 123.086 43.0197C122.494 42.2222 122.011 40.8131 122.011 39.8878C122.011 38.9619 121.217 37.281 120.245 36.1519C118.721 34.3799 117.799 34.0551 113.519 33.7825C106.413 33.33 106.33 33.4547 106.33 44.4781C106.33 57.1622 106.331 57.1637 117.781 57.1637C127.94 57.1637 129.491 56.4319 132.466 50.2317C133.734 47.589 134.782 46.3404 135.735 46.3389C137.017 46.336 137.109 46.8393 136.801 52.162C136.394 59.1769 134.398 64.0337 132.092 63.6103C131.271 63.4595 121.694 63.1234 110.81 62.8636C91.1784 62.3946 91.0201 62.3782 90.7886 60.754C90.6191 59.5637 91.1702 58.7991 92.8085 57.9515C94.4521 57.1017 95.222 56.0294 95.6551 53.9885C96.3735 50.5998 96.3936 13.8706 95.6783 11.2391C95.399 10.2124 94.1527 8.79953 92.9093 8.10058C90.3204 6.64369 89.9933 4.92096 92.0924 3.79786C92.9541 3.33712 100.409 2.99511 110.574 2.9503ZM265.386 3.51185C265.386 2.90177 265.758 2.27824 266.214 2.12665C266.669 1.97506 268.214 1.98701 269.646 2.15428C272.734 2.51495 272.804 2.65086 282.884 28.061C292.023 51.0964 292.258 51.6572 293.892 54.347C294.697 55.6724 296.258 57.1891 297.36 57.717C300.452 59.1993 300.114 62.0997 296.749 62.9771C292.943 63.9695 279.295 63.3355 277.803 62.0974C275.952 60.5606 276.328 59.4047 279.182 57.8679C282.493 56.0847 282.726 55.3767 281.43 51.015C279.646 45.0068 279.227 44.72 271.584 44.2847C259.211 43.579 255.786 44.8686 254.179 50.8388C253.491 53.3919 253.552 54.2395 254.529 55.7322C255.18 56.7246 256.157 57.5371 256.7 57.5371C257.242 57.5371 258.304 58.2196 259.059 59.0537C260.357 60.4874 260.362 60.6405 259.149 61.854C258.048 62.9554 256.039 63.1593 245.011 63.2885C237.407 63.3773 231.332 63.1175 230.139 62.653C227.91 61.7845 220.847 54.0767 210.909 41.6688C208.689 38.8962 206.547 36.6283 206.15 36.6283C205.696 36.6283 205.619 40.1634 205.944 46.1493L206.459 55.6702L209.226 58.0441C211.889 60.3284 211.944 60.4688 210.658 61.7778C209.522 62.936 208.058 63.1376 200.79 63.1376C194.026 63.1376 192.014 62.8942 191.083 61.9637C189.612 60.4904 190.242 58.7378 192.634 57.6476C193.647 57.1861 194.829 55.8808 195.261 54.7458C196.168 52.3651 196.399 18.8059 195.548 13.2016C195.104 10.2788 194.576 9.32374 192.865 8.34775C190.147 6.79676 189.53 5.18978 191.187 3.97782C192.759 2.82858 206.823 2.65758 209.705 3.75305C212.605 4.85598 212.389 5.49743 207.981 8.85702C206.34 10.1071 206.18 10.8546 205.823 18.9373C205.484 26.6339 205.581 27.6674 206.644 27.6674C207.742 27.6674 221.711 12.1382 222.609 9.91964C222.818 9.39916 222.113 8.28278 221.039 7.43897C218.643 5.55419 218.543 4.09207 220.768 3.49542C222.964 2.90699 235.052 2.89355 236.575 3.47825C238.692 4.2907 237.982 6.75122 235.486 7.25004C234.238 7.49945 231.489 9.25579 229.377 11.1518C224.847 15.22 213.86 28.335 213.86 29.6739C213.86 30.1854 215.289 32.2599 217.034 34.2836C218.779 36.3072 223.232 41.4665 226.928 45.749C233.509 53.3717 238.887 58.2838 240.656 58.2838C243.325 58.2838 248.282 52.6026 249.723 47.8922C250.048 46.8311 252.562 40.082 255.31 32.8946C260.892 18.2958 265.386 5.19277 265.386 3.51185ZM18.6706 6.91624C17.0128 5.58928 17.1644 4.59463 19.1478 3.78143C20.0722 3.40283 23.8485 3.16163 27.5404 3.24526C28.3788 3.26437 29.1085 3.24873 29.7543 3.2349C31.1255 3.20551 32.1183 3.18424 32.9696 3.52084C35.2031 4.40399 36.4626 7.75074 41.0266 19.8785C41.8458 22.0553 42.7715 24.515 43.8283 27.2941C48.1101 38.5512 50.776 44.5722 51.7452 45.171C53.3201 46.1441 57.0098 37.5431 64.1927 16.1564C66.3873 9.62019 68.6179 3.99649 69.148 3.65971C70.7341 2.6531 82.7343 2.90699 84.1986 3.97782C85.8653 5.1965 85.2351 6.79826 82.4677 8.37836C79.3918 10.134 79.1521 12.3331 79.7204 33.5906C80.3096 55.6403 80.4194 56.3931 83.2032 57.546C85.7966 58.6206 86.3806 59.9475 85.0574 61.7584C84.1777 62.9614 82.9501 63.1376 75.4289 63.1376C68.0772 63.1376 66.6121 62.9375 65.4741 61.7778C64.1889 60.4688 64.2509 60.3224 67.1259 57.8865L70.1128 55.3558V36.8449C70.1128 25.6229 69.835 18.3839 69.4072 18.4631C69.0189 18.534 67.7158 21.2223 66.5113 24.437C56.4318 51.3354 51.861 62.0175 50.4302 62.0175C48.65 62.0175 44.3234 53.7339 38.7295 39.6153C37.3466 36.1243 35.0212 30.4244 33.5621 26.9491C32.103 23.473 30.9089 20.5331 30.9089 20.4151C30.9089 20.2964 30.6095 20.2 30.2436 20.2C29.3878 20.2 28.3245 48.1565 29.007 52.7071C29.4393 55.5933 29.9434 56.405 32.0836 57.6677C37.702 60.9833 33.3948 63.9964 23.9978 63.3243C16.6238 62.7964 15.3439 60.0536 20.9952 56.8911C22.4842 56.057 24.1061 38.2614 24.1562 22.1961L24.1883 11.8709L22.0309 9.87484C20.8451 8.77713 19.333 7.44568 18.6706 6.91624ZM143.688 8.10058C141.152 6.67356 140.778 4.98741 142.733 3.7986C143.514 3.32442 147.56 3.08397 152.779 3.20121C163.608 3.44539 164.853 4.1996 160.504 7.87655L157.554 10.3714L157.077 19.1045C156.814 23.9076 156.812 33.6839 157.071 40.8302C157.511 52.9558 157.654 53.934 159.212 55.4932C160.657 56.9374 161.672 57.1637 166.719 57.1637C173.984 57.1637 176.037 56.1369 178.894 51.0748C181.695 46.1097 182.745 45.2091 183.987 46.7049C184.639 47.4904 184.793 49.2729 184.486 52.5018C183.66 61.2066 181.764 65.0941 178.96 63.8328C178.236 63.5073 169.579 63.0495 159.722 62.8158C141.995 62.3954 141.798 62.373 141.567 60.754C141.397 59.5607 141.951 58.7976 143.61 57.9403C144.914 57.2653 146.129 55.892 146.457 54.7234C147.182 52.1322 147.209 13.737 146.488 11.2391C146.192 10.2124 144.931 8.79953 143.688 8.10058ZM276.001 38.4586C276.481 37.9784 273.784 30.001 270.673 22.6994C268.397 17.3564 266.613 15.916 265.911 18.8566C265.685 19.8005 264.001 24.4378 262.168 29.1609C260.335 33.8841 258.985 38.0008 259.167 38.3085C259.545 38.9462 275.373 39.0866 276.001 38.4586Z" stroke="white" stroke-width="4" stroke-linejoin="round" mask="url(#path-28-outside-2_37_89)"/>
<path fill-rule="evenodd" clip-rule="evenodd" d="M34.2501 81.7464C32.7127 82.5125 32.1707 83.6602 31.1746 88.2548C29.8657 94.2943 26.832 102.289 24.3605 106.213L22.8127 108.671L24.6114 110.02C25.6007 110.762 26.6207 111.376 26.8783 111.385C27.7228 111.414 30.3555 104.593 31.7212 98.8386C32.4581 95.7341 33.2854 93.1946 33.5602 93.1946C33.8342 93.1946 34.28 94.5404 34.5495 96.1856C35.179 100.024 39.2289 110.294 40.5281 111.346C42.1558 112.663 44.8774 109.893 45.9287 105.85C46.4365 103.896 47.7177 99.0207 48.7758 95.0153C49.833 91.0098 50.7776 86.2579 50.8746 84.4555C51.027 81.6073 50.8433 81.1492 49.4694 80.9584C48.4293 80.8135 47.1936 81.5439 45.857 83.0929C44.1942 85.0206 43.9038 85.9208 44.2569 88.0473C45.5278 95.702 45.5785 97.0653 44.7035 100.113C44.186 101.916 43.5192 103.39 43.2221 103.39C42.1969 103.39 39.1968 92.0899 38.7772 86.6476C38.3202 80.7195 37.6863 80.0335 34.2501 81.7464ZM104.709 81.8753C103.695 82.5686 102.995 84.079 102.693 86.2252C102.034 90.9166 98.2058 100.172 95.0213 104.774L92.2997 108.706L94.0752 110.037C95.0511 110.77 96.095 111.376 96.3951 111.385C97.3277 111.413 99.7551 106.125 101.502 100.264C103.526 93.4684 104.841 92.8633 104.18 99.0316C103.695 103.561 104.741 110.32 106.05 111.109C106.966 111.662 108.275 109.975 112.828 102.377L116.365 96.4718L116.188 103.145C116.09 106.815 116.209 110.013 116.451 110.25C116.693 110.489 117.953 110.476 119.251 110.223L121.61 109.763V102.272C121.61 96.975 122.023 93.4874 123.019 90.3646C124.369 86.1341 124.373 85.8472 123.119 83.5634C122.399 82.2518 121.264 81.0727 120.598 80.9446C119.261 80.686 118.859 81.4959 116.483 89.2161C114.573 95.4231 110.694 101.774 109.515 100.624C108.991 100.112 108.836 96.5679 109.068 90.3289C109.412 81.0203 109.386 80.8142 107.841 80.8142C106.972 80.8142 105.563 81.2919 104.709 81.8753ZM198.546 82.5606C198.151 83.5743 197.287 86.2172 196.626 88.4333C195.546 92.0585 195.281 92.387 193.981 91.7097C190.907 90.1046 180.789 102.259 181.864 106.266C182.06 106.999 183.299 108.617 184.617 109.863L187.014 112.129L189.93 109.216C193.271 105.879 194.032 105.643 194.048 107.942C194.067 110.735 195.034 111.59 197.125 110.661C198.866 109.887 198.957 109.532 198.953 103.524C198.95 98.1431 199.269 96.4944 201.091 92.4664C202.327 89.7339 203.262 86.3468 203.301 84.4555C203.365 81.4026 203.23 81.1623 201.317 80.9482C199.696 80.7661 199.112 81.1055 198.546 82.5606ZM213.059 84.982C210.961 87.429 210.501 88.3976 211.226 88.8345C212.349 89.5118 214.045 89.0421 215.816 87.563C216.911 86.6483 217.253 86.708 218.633 88.0546C219.885 89.2751 220.503 89.4302 221.676 88.8185C223.124 88.0626 223.12 88.0072 221.415 85.3797C220.463 83.9115 218.823 82.4856 217.772 82.2117C216.14 81.7857 215.45 82.1913 213.059 84.982ZM258.374 83.4338C257.307 84.162 256.757 85.1816 256.901 86.1647C257.083 87.413 257.721 87.78 260.034 87.965C262.934 88.1966 262.937 88.1944 262.46 85.8712C262.198 84.5917 261.983 83.2582 261.983 82.908C261.983 81.9066 260.237 82.1608 258.374 83.4338ZM55.9983 93.3184C54.6132 94.5849 52.8563 96.959 52.0947 98.5954C49.7897 103.545 50.3475 106.831 54.1249 110.569L55.8601 112.285L58.6818 110.095C64.8059 105.341 67.1034 101.457 67.1034 95.8564C67.1034 91.8961 65.9633 90.8037 62.7623 91.6995C61.3302 92.1 60.2356 92.0942 59.9758 91.6842C59.2978 90.6137 58.6803 90.8671 55.9983 93.3184ZM76.6294 91.5495C72.0396 91.7818 71.5551 91.9588 71.1451 93.5507C70.5344 95.927 71.4027 97.0391 73.5554 96.6378C74.544 96.4536 75.5034 96.541 75.6871 96.8315C75.8715 97.1221 74.1475 99.3805 71.8567 101.85C67.9942 106.013 67.7276 106.529 68.1906 108.938C68.6543 111.349 68.8342 111.495 70.6971 110.968C71.8007 110.655 74.1602 110.353 75.941 110.296C79.2338 110.189 80.5106 109.231 80.5322 106.849C80.5412 105.823 79.8901 105.575 77.1834 105.575C75.3354 105.575 73.8234 105.262 73.8234 104.88C73.8234 104.496 75.6804 102.328 77.9502 100.061C80.2201 97.7929 82.4041 95.3423 82.8036 94.614C83.8168 92.7679 83.71 90.9822 82.5967 91.1526C82.0838 91.2312 79.398 91.4097 76.6294 91.5495ZM131.416 93.6454C128.066 96.4412 123.869 102.826 123.857 105.142C123.848 106.934 127.334 111.401 128.741 111.401C129.337 111.401 131.142 110.115 132.754 108.543L135.685 105.684L136.188 108.593C136.591 110.921 136.938 111.402 137.925 111.004C138.602 110.731 139.729 110.347 140.428 110.15C141.516 109.844 141.636 109.127 141.257 105.174C140.925 101.699 141.118 99.9325 142.039 98.0397C144.206 93.5857 143.055 91.3783 138.98 92.1729C137.662 92.4299 136.514 92.2799 136.216 91.8117C135.432 90.5729 134.813 90.8088 131.416 93.6454ZM150.77 92.6142C147.453 94.8128 145.273 99.0804 144.913 104.08C144.643 107.83 144.791 108.281 146.95 110.282L149.277 112.44L152.022 111.01C156.139 108.866 158.943 106.343 158.943 104.782C158.943 103.027 158.519 103.037 156.161 104.847C152.624 107.56 149.541 105.944 150.72 101.995C151.786 98.4264 153.642 94.6511 154.332 94.6511C154.712 94.6511 155.225 95.6343 155.471 96.8359C155.813 98.5 156.324 99.0178 157.618 99.0098C160.936 98.9879 161.492 98.0798 160.347 94.5499C159.376 91.5568 159.143 91.3616 156.305 91.1577C154.132 91.0018 152.593 91.4067 150.77 92.6142ZM168.254 94.4844C163.577 98.8634 160.853 103.971 161.892 106.407C162.923 108.823 165.338 111.401 166.57 111.401C167.142 111.401 168.75 110.254 170.143 108.852C173.23 105.746 173.877 105.676 173.877 108.445C173.877 111.117 174.72 111.658 177.181 110.565C179.25 109.646 179.548 108.172 178.435 104.386C177.925 102.652 178.11 101.364 179.216 98.9559C180.014 97.2197 180.566 94.9672 180.444 93.9506C180.243 92.2646 179.949 92.119 177.099 92.2923C175.38 92.3964 173.765 92.151 173.509 91.7461C172.741 90.5343 172.132 90.8518 168.254 94.4844ZM209.816 93.6454C206.652 96.2868 202.27 102.787 202.257 104.86C202.247 106.486 205.868 111.401 207.077 111.401C207.649 111.401 209.358 110.259 210.875 108.865C213.826 106.149 214.943 106.124 214.943 108.774C214.943 109.685 215.145 110.627 215.391 110.867C215.745 111.212 218.714 110.335 220.05 109.489C220.189 109.401 219.899 107.569 219.405 105.418C218.589 101.86 218.65 101.247 220.086 98.6362C222.721 93.8399 221.673 91.3354 217.38 92.1729C216.062 92.4299 214.913 92.2799 214.616 91.8117C213.832 90.5729 213.213 90.8088 209.816 93.6454ZM227.142 91.7374C225.782 92.2726 225.479 93.0934 225.214 96.9706C225.042 99.4999 224.43 102.647 223.854 103.964C222.944 106.048 222.956 106.616 223.944 108.334C225.931 111.787 227.819 110.918 229.204 105.912C230.75 100.325 232.594 96.8359 234.003 96.8359C235.513 96.8359 235.382 98.5466 233.61 101.934C231.715 105.557 231.73 107.084 233.686 109.51C235.815 112.149 237.048 111.035 238.173 105.459C239.061 101.06 241.575 96.4419 242.943 96.6968C243.914 96.8774 243.916 96.8519 242.259 104.307C241.479 107.815 241.011 110.851 241.219 111.054C241.427 111.258 242.714 110.966 244.08 110.406C246.464 109.428 246.63 109.09 248.315 101.838C249.608 96.2642 249.872 93.8581 249.321 92.6484C248.345 90.5052 246.205 90.5714 243.452 92.8305C240.92 94.9089 240.33 95.0633 240.33 93.6476C240.33 92.1139 238.333 90.8365 236.715 91.3368C235.92 91.583 234.392 92.5778 233.319 93.5471C231.279 95.3925 231.119 95.3197 231.341 92.6484C231.488 90.8744 230.101 90.5736 227.142 91.7374ZM257.877 91.5371C255.288 92.1576 254.681 93.1269 253.508 98.5095C251.711 106.75 251.256 111.401 252.244 111.401C253.616 111.401 257.583 109.203 257.228 108.639C256.703 107.804 258.777 97.302 260.058 94.3118C260.706 92.7984 261.237 91.4366 261.237 91.2851C261.237 90.9523 259.896 91.0528 257.877 91.5371ZM268.608 93.7161C264.623 97.2102 261.237 102.365 261.237 104.933C261.237 106.98 264.452 111.401 265.941 111.401C266.403 111.401 268.174 110.067 269.878 108.436L272.976 105.471L273.462 108.436C273.729 110.067 274.129 111.401 274.349 111.401C274.57 111.401 275.769 110.888 277.014 110.259C278.661 109.429 279.139 108.784 278.771 107.892C277.311 104.368 277.463 100.952 279.221 97.814C281.496 93.751 280.701 92.1051 276.459 92.0957C274.862 92.092 273.15 91.835 272.653 91.5247C272.097 91.1766 270.546 92.017 268.608 93.7161ZM61.036 100.409C59.9914 103.52 58.2315 106.303 57.3109 106.303C55.5861 106.303 57.2571 98.4366 59.5233 95.8841C60.6418 94.6242 60.7187 94.6373 61.3041 96.1805C61.6662 97.136 61.5572 98.8583 61.036 100.409ZM136.058 98.4628C135.597 101.228 131.852 106.312 130.926 105.427C130.632 105.145 130.589 104.142 130.832 103.198C131.308 101.347 135.715 95.0568 136.202 95.5316C136.364 95.6904 136.299 97.0092 136.058 98.4628ZM173.187 99.5443C172.409 102.359 169.975 105.575 168.621 105.575C167.084 105.575 168.551 101.652 171.581 97.6588C173.726 94.8325 174.301 95.5083 173.187 99.5443ZM194.399 97.7462C193.775 100.683 190.453 105.575 189.082 105.575C187.686 105.575 187.801 104.561 189.587 101.146C191.051 98.3471 193.564 95.3794 194.469 95.3794C194.707 95.3794 194.676 96.4441 194.399 97.7462ZM273.037 98.8445C272.086 102.21 269.708 105.575 268.279 105.575C266.952 105.575 266.953 105.4 268.31 102.232C269.798 98.7578 272.409 95.2767 273.179 95.7406C273.524 95.9489 273.46 97.3457 273.037 98.8445ZM214.65 97.2598C214.4 97.8934 214.197 99.0149 214.197 99.7526C214.197 101.193 210.775 105.575 209.65 105.575C208.032 105.575 209.875 100.342 212.536 97.3821C213.964 95.7938 215.256 95.7188 214.65 97.2598Z" fill="black"/>
</svg>
